<?xml version="1.0" encoding="utf-8"?>
<svg xmlns="http://www.w3.org/2000/svg" xmlns:xlink="http://www.w3.org/1999/xlink" width="1000" height="1000" viewBox="0 0 4000 4000">
<defs>
  <clipPath id="clip250">
    <rect x="0" y="0" width="4000" height="4000"/>
  </clipPath>
</defs>
<path clip-path="url(#clip250)" d="
M0 4000 L4000 4000 L4000 0 L0 0  Z
  " fill="#ffffff" fill-rule="evenodd" fill-opacity="1"/>
<defs>
  <clipPath id="clip251">
    <rect x="800" y="400" width="2801" height="2801"/>
  </clipPath>
</defs>
<path clip-path="url(#clip250)" d="
M200.191 3845.17 L3952.76 3845.17 L3952.76 47.2441 L200.191 47.2441  Z
  " fill="#ffffff" fill-rule="evenodd" fill-opacity="1"/>
<defs>
  <clipPath id="clip252">
    <rect x="200" y="47" width="3754" height="3799"/>
  </clipPath>
</defs>
<polyline clip-path="url(#clip252)" style="stroke:#000000; stroke-linecap:round; stroke-linejoin:round; stroke-width:2; stroke-opacity:0.1; fill:none" points="
  306.395,3845.17 306.395,47.2441 
  "/>
<polyline clip-path="url(#clip252)" style="stroke:#000000; stroke-linecap:round; stroke-linejoin:round; stroke-width:2; stroke-opacity:0.1; fill:none" points="
  1191.43,3845.17 1191.43,47.2441 
  "/>
<polyline clip-path="url(#clip252)" style="stroke:#000000; stroke-linecap:round; stroke-linejoin:round; stroke-width:2; stroke-opacity:0.1; fill:none" points="
  2076.47,3845.17 2076.47,47.2441 
  "/>
<polyline clip-path="url(#clip252)" style="stroke:#000000; stroke-linecap:round; stroke-linejoin:round; stroke-width:2; stroke-opacity:0.1; fill:none" points="
  2961.51,3845.17 2961.51,47.2441 
  "/>
<polyline clip-path="url(#clip252)" style="stroke:#000000; stroke-linecap:round; stroke-linejoin:round; stroke-width:2; stroke-opacity:0.1; fill:none" points="
  3846.55,3845.17 3846.55,47.2441 
  "/>
<polyline clip-path="url(#clip250)" style="stroke:#000000; stroke-linecap:round; stroke-linejoin:round; stroke-width:4; stroke-opacity:1; fill:none" points="
  200.191,3845.17 3952.76,3845.17 
  "/>
<polyline clip-path="url(#clip250)" style="stroke:#000000; stroke-linecap:round; stroke-linejoin:round; stroke-width:4; stroke-opacity:1; fill:none" points="
  306.395,3845.17 306.395,3826.27 
  "/>
<polyline clip-path="url(#clip250)" style="stroke:#000000; stroke-linecap:round; stroke-linejoin:round; stroke-width:4; stroke-opacity:1; fill:none" points="
  1191.43,3845.17 1191.43,3826.27 
  "/>
<polyline clip-path="url(#clip250)" style="stroke:#000000; stroke-linecap:round; stroke-linejoin:round; stroke-width:4; stroke-opacity:1; fill:none" points="
  2076.47,3845.17 2076.47,3826.27 
  "/>
<polyline clip-path="url(#clip250)" style="stroke:#000000; stroke-linecap:round; stroke-linejoin:round; stroke-width:4; stroke-opacity:1; fill:none" points="
  2961.51,3845.17 2961.51,3826.27 
  "/>
<polyline clip-path="url(#clip250)" style="stroke:#000000; stroke-linecap:round; stroke-linejoin:round; stroke-width:4; stroke-opacity:1; fill:none" points="
  3846.55,3845.17 3846.55,3826.27 
  "/>
<path clip-path="url(#clip250)" d="M245.377 3903.54 L275.053 3903.54 L275.053 3907.47 L245.377 3907.47 L245.377 3903.54 Z" fill="#000000" fill-rule="evenodd" fill-opacity="1" /><path clip-path="url(#clip250)" d="M289.173 3916.43 L305.493 3916.43 L305.493 3920.37 L283.548 3920.37 L283.548 3916.43 Q286.21 3913.68 290.794 3909.05 Q295.4 3904.4 296.581 3903.05 Q298.826 3900.53 299.706 3898.79 Q300.608 3897.03 300.608 3895.34 Q300.608 3892.59 298.664 3890.85 Q296.743 3889.12 293.641 3889.12 Q291.442 3889.12 288.988 3889.88 Q286.557 3890.65 283.78 3892.2 L283.78 3887.47 Q286.604 3886.34 289.057 3885.76 Q291.511 3885.18 293.548 3885.18 Q298.919 3885.18 302.113 3887.87 Q305.307 3890.55 305.307 3895.04 Q305.307 3897.17 304.497 3899.09 Q303.71 3900.99 301.604 3903.59 Q301.025 3904.26 297.923 3907.47 Q294.821 3910.67 289.173 3916.43 Z" fill="#000000" fill-rule="evenodd" fill-opacity="1" /><path clip-path="url(#clip250)" d="M325.307 3888.89 Q321.696 3888.89 319.868 3892.45 Q318.062 3895.99 318.062 3903.12 Q318.062 3910.23 319.868 3913.79 Q321.696 3917.34 325.307 3917.34 Q328.942 3917.34 330.747 3913.79 Q332.576 3910.23 332.576 3903.12 Q332.576 3895.99 330.747 3892.45 Q328.942 3888.89 325.307 3888.89 M325.307 3885.18 Q331.117 3885.18 334.173 3889.79 Q337.252 3894.37 337.252 3903.12 Q337.252 3911.85 334.173 3916.46 Q331.117 3921.04 325.307 3921.04 Q319.497 3921.04 316.418 3916.46 Q313.363 3911.85 313.363 3903.12 Q313.363 3894.37 316.418 3889.79 Q319.497 3885.18 325.307 3885.18 Z" fill="#000000" fill-rule="evenodd" fill-opacity="1" /><path clip-path="url(#clip250)" d="M355.469 3888.89 Q351.858 3888.89 350.029 3892.45 Q348.224 3895.99 348.224 3903.12 Q348.224 3910.23 350.029 3913.79 Q351.858 3917.34 355.469 3917.34 Q359.103 3917.34 360.909 3913.79 Q362.738 3910.23 362.738 3903.12 Q362.738 3895.99 360.909 3892.45 Q359.103 3888.89 355.469 3888.89 M355.469 3885.18 Q361.279 3885.18 364.335 3889.79 Q367.414 3894.37 367.414 3903.12 Q367.414 3911.85 364.335 3916.46 Q361.279 3921.04 355.469 3921.04 Q349.659 3921.04 346.58 3916.46 Q343.525 3911.85 343.525 3903.12 Q343.525 3894.37 346.58 3889.79 Q349.659 3885.18 355.469 3885.18 Z" fill="#000000" fill-rule="evenodd" fill-opacity="1" /><path clip-path="url(#clip250)" d="M1130.42 3903.54 L1160.09 3903.54 L1160.09 3907.47 L1130.42 3907.47 L1130.42 3903.54 Z" fill="#000000" fill-rule="evenodd" fill-opacity="1" /><path clip-path="url(#clip250)" d="M1170.99 3916.43 L1178.63 3916.43 L1178.63 3890.07 L1170.32 3891.73 L1170.32 3887.47 L1178.59 3885.81 L1183.26 3885.81 L1183.26 3916.43 L1190.9 3916.43 L1190.9 3920.37 L1170.99 3920.37 L1170.99 3916.43 Z" fill="#000000" fill-rule="evenodd" fill-opacity="1" /><path clip-path="url(#clip250)" d="M1210.35 3888.89 Q1206.74 3888.89 1204.91 3892.45 Q1203.1 3895.99 1203.1 3903.12 Q1203.1 3910.23 1204.91 3913.79 Q1206.74 3917.34 1210.35 3917.34 Q1213.98 3917.34 1215.79 3913.79 Q1217.61 3910.23 1217.61 3903.12 Q1217.61 3895.99 1215.79 3892.45 Q1213.98 3888.89 1210.35 3888.89 M1210.35 3885.18 Q1216.16 3885.18 1219.21 3889.79 Q1222.29 3894.37 1222.29 3903.12 Q1222.29 3911.85 1219.21 3916.46 Q1216.16 3921.04 1210.35 3921.04 Q1204.54 3921.04 1201.46 3916.46 Q1198.4 3911.85 1198.4 3903.12 Q1198.4 3894.37 1201.46 3889.79 Q1204.54 3885.18 1210.35 3885.18 Z" fill="#000000" fill-rule="evenodd" fill-opacity="1" /><path clip-path="url(#clip250)" d="M1240.51 3888.89 Q1236.9 3888.89 1235.07 3892.45 Q1233.26 3895.99 1233.26 3903.12 Q1233.26 3910.23 1235.07 3913.79 Q1236.9 3917.34 1240.51 3917.34 Q1244.14 3917.34 1245.95 3913.79 Q1247.78 3910.23 1247.78 3903.12 Q1247.78 3895.99 1245.95 3892.45 Q1244.14 3888.89 1240.51 3888.89 M1240.51 3885.18 Q1246.32 3885.18 1249.37 3889.79 Q1252.45 3894.37 1252.45 3903.12 Q1252.45 3911.85 1249.37 3916.46 Q1246.32 3921.04 1240.51 3921.04 Q1234.7 3921.04 1231.62 3916.46 Q1228.56 3911.85 1228.56 3903.12 Q1228.56 3894.37 1231.62 3889.79 Q1234.7 3885.18 1240.51 3885.18 Z" fill="#000000" fill-rule="evenodd" fill-opacity="1" /><path clip-path="url(#clip250)" d="M2076.47 3888.89 Q2072.86 3888.89 2071.03 3892.45 Q2069.23 3895.99 2069.23 3903.12 Q2069.23 3910.23 2071.03 3913.79 Q2072.86 3917.34 2076.47 3917.34 Q2080.11 3917.34 2081.91 3913.79 Q2083.74 3910.23 2083.74 3903.12 Q2083.74 3895.99 2081.91 3892.45 Q2080.11 3888.89 2076.47 3888.89 M2076.47 3885.18 Q2082.28 3885.18 2085.34 3889.79 Q2088.42 3894.37 2088.42 3903.12 Q2088.42 3911.85 2085.34 3916.46 Q2082.28 3921.04 2076.47 3921.04 Q2070.66 3921.04 2067.58 3916.46 Q2064.53 3911.85 2064.53 3903.12 Q2064.53 3894.37 2067.58 3889.79 Q2070.66 3885.18 2076.47 3885.18 Z" fill="#000000" fill-rule="evenodd" fill-opacity="1" /><path clip-path="url(#clip250)" d="M2921.12 3916.43 L2928.76 3916.43 L2928.76 3890.07 L2920.45 3891.73 L2920.45 3887.47 L2928.71 3885.81 L2933.39 3885.81 L2933.39 3916.43 L2941.03 3916.43 L2941.03 3920.37 L2921.12 3920.37 L2921.12 3916.43 Z" fill="#000000" fill-rule="evenodd" fill-opacity="1" /><path clip-path="url(#clip250)" d="M2960.47 3888.89 Q2956.86 3888.89 2955.03 3892.45 Q2953.23 3895.99 2953.23 3903.12 Q2953.23 3910.23 2955.03 3913.79 Q2956.86 3917.34 2960.47 3917.34 Q2964.1 3917.34 2965.91 3913.79 Q2967.74 3910.23 2967.74 3903.12 Q2967.74 3895.99 2965.91 3892.45 Q2964.1 3888.89 2960.47 3888.89 M2960.47 3885.18 Q2966.28 3885.18 2969.34 3889.79 Q2972.41 3894.37 2972.41 3903.12 Q2972.41 3911.85 2969.34 3916.46 Q2966.28 3921.04 2960.47 3921.04 Q2954.66 3921.04 2951.58 3916.46 Q2948.53 3911.85 2948.53 3903.12 Q2948.53 3894.37 2951.58 3889.79 Q2954.66 3885.18 2960.47 3885.18 Z" fill="#000000" fill-rule="evenodd" fill-opacity="1" /><path clip-path="url(#clip250)" d="M2990.63 3888.89 Q2987.02 3888.89 2985.19 3892.45 Q2983.39 3895.99 2983.39 3903.12 Q2983.39 3910.23 2985.19 3913.79 Q2987.02 3917.34 2990.63 3917.34 Q2994.27 3917.34 2996.07 3913.79 Q2997.9 3910.23 2997.9 3903.12 Q2997.9 3895.99 2996.07 3892.45 Q2994.27 3888.89 2990.63 3888.89 M2990.63 3885.18 Q2996.44 3885.18 2999.5 3889.79 Q3002.58 3894.37 3002.58 3903.12 Q3002.58 3911.85 2999.5 3916.46 Q2996.44 3921.04 2990.63 3921.04 Q2984.82 3921.04 2981.74 3916.46 Q2978.69 3911.85 2978.69 3903.12 Q2978.69 3894.37 2981.74 3889.79 Q2984.82 3885.18 2990.63 3885.18 Z" fill="#000000" fill-rule="evenodd" fill-opacity="1" /><path clip-path="url(#clip250)" d="M3810.24 3916.43 L3826.56 3916.43 L3826.56 3920.37 L3804.62 3920.37 L3804.62 3916.43 Q3807.28 3913.68 3811.86 3909.05 Q3816.47 3904.4 3817.65 3903.05 Q3819.9 3900.53 3820.78 3898.79 Q3821.68 3897.03 3821.68 3895.34 Q3821.68 3892.59 3819.73 3890.85 Q3817.81 3889.12 3814.71 3889.12 Q3812.51 3889.12 3810.06 3889.88 Q3807.63 3890.65 3804.85 3892.2 L3804.85 3887.47 Q3807.67 3886.34 3810.13 3885.76 Q3812.58 3885.18 3814.62 3885.18 Q3819.99 3885.18 3823.18 3887.87 Q3826.38 3890.55 3826.38 3895.04 Q3826.38 3897.17 3825.57 3899.09 Q3824.78 3900.99 3822.67 3903.59 Q3822.1 3904.26 3818.99 3907.47 Q3815.89 3910.67 3810.24 3916.43 Z" fill="#000000" fill-rule="evenodd" fill-opacity="1" /><path clip-path="url(#clip250)" d="M3846.38 3888.89 Q3842.77 3888.89 3840.94 3892.45 Q3839.13 3895.99 3839.13 3903.12 Q3839.13 3910.23 3840.94 3913.79 Q3842.77 3917.34 3846.38 3917.34 Q3850.01 3917.34 3851.82 3913.79 Q3853.65 3910.23 3853.65 3903.12 Q3853.65 3895.99 3851.82 3892.45 Q3850.01 3888.89 3846.38 3888.89 M3846.38 3885.18 Q3852.19 3885.18 3855.24 3889.79 Q3858.32 3894.37 3858.32 3903.12 Q3858.32 3911.85 3855.24 3916.46 Q3852.19 3921.04 3846.38 3921.04 Q3840.57 3921.04 3837.49 3916.46 Q3834.43 3911.85 3834.43 3903.12 Q3834.43 3894.37 3837.49 3889.79 Q3840.57 3885.18 3846.38 3885.18 Z" fill="#000000" fill-rule="evenodd" fill-opacity="1" /><path clip-path="url(#clip250)" d="M3876.54 3888.89 Q3872.93 3888.89 3871.1 3892.45 Q3869.29 3895.99 3869.29 3903.12 Q3869.29 3910.23 3871.1 3913.79 Q3872.93 3917.34 3876.54 3917.34 Q3880.17 3917.34 3881.98 3913.79 Q3883.81 3910.23 3883.81 3903.12 Q3883.81 3895.99 3881.98 3892.45 Q3880.17 3888.89 3876.54 3888.89 M3876.54 3885.18 Q3882.35 3885.18 3885.41 3889.79 Q3888.48 3894.37 3888.48 3903.12 Q3888.48 3911.85 3885.41 3916.46 Q3882.35 3921.04 3876.54 3921.04 Q3870.73 3921.04 3867.65 3916.46 Q3864.6 3911.85 3864.6 3903.12 Q3864.6 3894.37 3867.65 3889.79 Q3870.73 3885.18 3876.54 3885.18 Z" fill="#000000" fill-rule="evenodd" fill-opacity="1" /><polyline clip-path="url(#clip252)" style="stroke:#000000; stroke-linecap:round; stroke-linejoin:round; stroke-width:2; stroke-opacity:0.1; fill:none" points="
  200.191,3737.68 3952.76,3737.68 
  "/>
<polyline clip-path="url(#clip252)" style="stroke:#000000; stroke-linecap:round; stroke-linejoin:round; stroke-width:2; stroke-opacity:0.1; fill:none" points="
  200.191,2978.44 3952.76,2978.44 
  "/>
<polyline clip-path="url(#clip252)" style="stroke:#000000; stroke-linecap:round; stroke-linejoin:round; stroke-width:2; stroke-opacity:0.1; fill:none" points="
  200.191,2219.2 3952.76,2219.2 
  "/>
<polyline clip-path="url(#clip252)" style="stroke:#000000; stroke-linecap:round; stroke-linejoin:round; stroke-width:2; stroke-opacity:0.1; fill:none" points="
  200.191,1459.96 3952.76,1459.96 
  "/>
<polyline clip-path="url(#clip252)" style="stroke:#000000; stroke-linecap:round; stroke-linejoin:round; stroke-width:2; stroke-opacity:0.1; fill:none" points="
  200.191,700.725 3952.76,700.725 
  "/>
<polyline clip-path="url(#clip250)" style="stroke:#000000; stroke-linecap:round; stroke-linejoin:round; stroke-width:4; stroke-opacity:1; fill:none" points="
  200.191,3845.17 200.191,47.2441 
  "/>
<polyline clip-path="url(#clip250)" style="stroke:#000000; stroke-linecap:round; stroke-linejoin:round; stroke-width:4; stroke-opacity:1; fill:none" points="
  200.191,3737.68 219.088,3737.68 
  "/>
<polyline clip-path="url(#clip250)" style="stroke:#000000; stroke-linecap:round; stroke-linejoin:round; stroke-width:4; stroke-opacity:1; fill:none" points="
  200.191,2978.44 219.088,2978.44 
  "/>
<polyline clip-path="url(#clip250)" style="stroke:#000000; stroke-linecap:round; stroke-linejoin:round; stroke-width:4; stroke-opacity:1; fill:none" points="
  200.191,2219.2 219.088,2219.2 
  "/>
<polyline clip-path="url(#clip250)" style="stroke:#000000; stroke-linecap:round; stroke-linejoin:round; stroke-width:4; stroke-opacity:1; fill:none" points="
  200.191,1459.96 219.088,1459.96 
  "/>
<polyline clip-path="url(#clip250)" style="stroke:#000000; stroke-linecap:round; stroke-linejoin:round; stroke-width:4; stroke-opacity:1; fill:none" points="
  200.191,700.725 219.088,700.725 
  "/>
<path clip-path="url(#clip250)" d="M83.0151 3723.48 Q79.404 3723.48 77.5753 3727.04 Q75.7697 3730.58 75.7697 3737.71 Q75.7697 3744.82 77.5753 3748.39 Q79.404 3751.93 83.0151 3751.93 Q86.6493 3751.93 88.4548 3748.39 Q90.2835 3744.82 90.2835 3737.71 Q90.2835 3730.58 88.4548 3727.04 Q86.6493 3723.48 83.0151 3723.48 M83.0151 3719.77 Q88.8252 3719.77 91.8808 3724.38 Q94.9594 3728.96 94.9594 3737.71 Q94.9594 3746.44 91.8808 3751.05 Q88.8252 3755.63 83.0151 3755.63 Q77.2049 3755.63 74.1262 3751.05 Q71.0707 3746.44 71.0707 3737.71 Q71.0707 3728.96 74.1262 3724.38 Q77.2049 3719.77 83.0151 3719.77 Z" fill="#000000" fill-rule="evenodd" fill-opacity="1" /><path clip-path="url(#clip250)" d="M103.177 3749.08 L108.061 3749.08 L108.061 3754.96 L103.177 3754.96 L103.177 3749.08 Z" fill="#000000" fill-rule="evenodd" fill-opacity="1" /><path clip-path="url(#clip250)" d="M128.246 3723.48 Q124.635 3723.48 122.807 3727.04 Q121.001 3730.58 121.001 3737.71 Q121.001 3744.82 122.807 3748.39 Q124.635 3751.93 128.246 3751.93 Q131.881 3751.93 133.686 3748.39 Q135.515 3744.82 135.515 3737.71 Q135.515 3730.58 133.686 3727.04 Q131.881 3723.48 128.246 3723.48 M128.246 3719.77 Q134.056 3719.77 137.112 3724.38 Q140.191 3728.96 140.191 3737.71 Q140.191 3746.44 137.112 3751.05 Q134.056 3755.63 128.246 3755.63 Q122.436 3755.63 119.357 3751.05 Q116.302 3746.44 116.302 3737.71 Q116.302 3728.96 119.357 3724.38 Q122.436 3719.77 128.246 3719.77 Z" fill="#000000" fill-rule="evenodd" fill-opacity="1" /><path clip-path="url(#clip250)" d="M78.0382 2991.79 L94.3576 2991.79 L94.3576 2995.72 L72.4133 2995.72 L72.4133 2991.79 Q75.0753 2989.03 79.6586 2984.4 Q84.2651 2979.75 85.4456 2978.41 Q87.691 2975.88 88.5706 2974.15 Q89.4734 2972.39 89.4734 2970.7 Q89.4734 2967.94 87.5289 2966.21 Q85.6076 2964.47 82.5058 2964.47 Q80.3067 2964.47 77.8531 2965.23 Q75.4225 2966 72.6447 2967.55 L72.6447 2962.83 Q75.4688 2961.69 77.9225 2961.11 Q80.3762 2960.54 82.4132 2960.54 Q87.7836 2960.54 90.978 2963.22 Q94.1724 2965.91 94.1724 2970.4 Q94.1724 2972.53 93.3622 2974.45 Q92.5752 2976.35 90.4687 2978.94 Q89.89 2979.61 86.7882 2982.83 Q83.6864 2986.02 78.0382 2991.79 Z" fill="#000000" fill-rule="evenodd" fill-opacity="1" /><path clip-path="url(#clip250)" d="M104.172 2989.84 L109.057 2989.84 L109.057 2995.72 L104.172 2995.72 L104.172 2989.84 Z" fill="#000000" fill-rule="evenodd" fill-opacity="1" /><path clip-path="url(#clip250)" d="M119.288 2961.16 L137.644 2961.16 L137.644 2965.1 L123.57 2965.1 L123.57 2973.57 Q124.589 2973.22 125.607 2973.06 Q126.626 2972.87 127.644 2972.87 Q133.431 2972.87 136.811 2976.04 Q140.191 2979.22 140.191 2984.63 Q140.191 2990.21 136.718 2993.31 Q133.246 2996.39 126.927 2996.39 Q124.751 2996.39 122.482 2996.02 Q120.237 2995.65 117.83 2994.91 L117.83 2990.21 Q119.913 2991.35 122.135 2991.9 Q124.357 2992.46 126.834 2992.46 Q130.839 2992.46 133.177 2990.35 Q135.515 2988.24 135.515 2984.63 Q135.515 2981.02 133.177 2978.92 Q130.839 2976.81 126.834 2976.81 Q124.959 2976.81 123.084 2977.23 Q121.232 2977.64 119.288 2978.52 L119.288 2961.16 Z" fill="#000000" fill-rule="evenodd" fill-opacity="1" /><path clip-path="url(#clip250)" d="M73.0614 2201.92 L91.4178 2201.92 L91.4178 2205.86 L77.3438 2205.86 L77.3438 2214.33 Q78.3623 2213.98 79.3808 2213.82 Q80.3993 2213.64 81.4178 2213.64 Q87.2049 2213.64 90.5845 2216.81 Q93.9641 2219.98 93.9641 2225.39 Q93.9641 2230.97 90.4919 2234.07 Q87.0197 2237.15 80.7003 2237.15 Q78.5243 2237.15 76.2558 2236.78 Q74.0105 2236.41 71.6031 2235.67 L71.6031 2230.97 Q73.6864 2232.11 75.9086 2232.66 Q78.1308 2233.22 80.6077 2233.22 Q84.6123 2233.22 86.9502 2231.11 Q89.2882 2229.01 89.2882 2225.39 Q89.2882 2221.78 86.9502 2219.68 Q84.6123 2217.57 80.6077 2217.57 Q78.7327 2217.57 76.8577 2217.99 Q75.0058 2218.4 73.0614 2219.28 L73.0614 2201.92 Z" fill="#000000" fill-rule="evenodd" fill-opacity="1" /><path clip-path="url(#clip250)" d="M103.177 2230.6 L108.061 2230.6 L108.061 2236.48 L103.177 2236.48 L103.177 2230.6 Z" fill="#000000" fill-rule="evenodd" fill-opacity="1" /><path clip-path="url(#clip250)" d="M128.246 2205 Q124.635 2205 122.807 2208.57 Q121.001 2212.11 121.001 2219.24 Q121.001 2226.34 122.807 2229.91 Q124.635 2233.45 128.246 2233.45 Q131.881 2233.45 133.686 2229.91 Q135.515 2226.34 135.515 2219.24 Q135.515 2212.11 133.686 2208.57 Q131.881 2205 128.246 2205 M128.246 2201.3 Q134.056 2201.3 137.112 2205.9 Q140.191 2210.49 140.191 2219.24 Q140.191 2227.96 137.112 2232.57 Q134.056 2237.15 128.246 2237.15 Q122.436 2237.15 119.357 2232.57 Q116.302 2227.96 116.302 2219.24 Q116.302 2210.49 119.357 2205.9 Q122.436 2201.3 128.246 2201.3 Z" fill="#000000" fill-rule="evenodd" fill-opacity="1" /><path clip-path="url(#clip250)" d="M72.8299 1442.68 L95.052 1442.68 L95.052 1444.67 L82.5058 1477.24 L77.6216 1477.24 L89.4271 1446.62 L72.8299 1446.62 L72.8299 1442.68 Z" fill="#000000" fill-rule="evenodd" fill-opacity="1" /><path clip-path="url(#clip250)" d="M104.172 1471.36 L109.057 1471.36 L109.057 1477.24 L104.172 1477.24 L104.172 1471.36 Z" fill="#000000" fill-rule="evenodd" fill-opacity="1" /><path clip-path="url(#clip250)" d="M119.288 1442.68 L137.644 1442.68 L137.644 1446.62 L123.57 1446.62 L123.57 1455.09 Q124.589 1454.74 125.607 1454.58 Q126.626 1454.4 127.644 1454.4 Q133.431 1454.4 136.811 1457.57 Q140.191 1460.74 140.191 1466.16 Q140.191 1471.73 136.718 1474.84 Q133.246 1477.91 126.927 1477.91 Q124.751 1477.91 122.482 1477.54 Q120.237 1477.17 117.83 1476.43 L117.83 1471.73 Q119.913 1472.87 122.135 1473.42 Q124.357 1473.98 126.834 1473.98 Q130.839 1473.98 133.177 1471.87 Q135.515 1469.77 135.515 1466.16 Q135.515 1462.54 133.177 1460.44 Q130.839 1458.33 126.834 1458.33 Q124.959 1458.33 123.084 1458.75 Q121.232 1459.16 119.288 1460.04 L119.288 1442.68 Z" fill="#000000" fill-rule="evenodd" fill-opacity="1" /><path clip-path="url(#clip250)" d="M43.6634 714.07 L51.3023 714.07 L51.3023 687.704 L42.9921 689.371 L42.9921 685.112 L51.256 683.445 L55.9319 683.445 L55.9319 714.07 L63.5707 714.07 L63.5707 718.005 L43.6634 718.005 L43.6634 714.07 Z" fill="#000000" fill-rule="evenodd" fill-opacity="1" /><path clip-path="url(#clip250)" d="M83.0151 686.524 Q79.404 686.524 77.5753 690.088 Q75.7697 693.63 75.7697 700.76 Q75.7697 707.866 77.5753 711.431 Q79.404 714.972 83.0151 714.972 Q86.6493 714.972 88.4548 711.431 Q90.2835 707.866 90.2835 700.76 Q90.2835 693.63 88.4548 690.088 Q86.6493 686.524 83.0151 686.524 M83.0151 682.82 Q88.8252 682.82 91.8808 687.426 Q94.9594 692.01 94.9594 700.76 Q94.9594 709.486 91.8808 714.093 Q88.8252 718.676 83.0151 718.676 Q77.2049 718.676 74.1262 714.093 Q71.0707 709.486 71.0707 700.76 Q71.0707 692.01 74.1262 687.426 Q77.2049 682.82 83.0151 682.82 Z" fill="#000000" fill-rule="evenodd" fill-opacity="1" /><path clip-path="url(#clip250)" d="M103.177 712.125 L108.061 712.125 L108.061 718.005 L103.177 718.005 L103.177 712.125 Z" fill="#000000" fill-rule="evenodd" fill-opacity="1" /><path clip-path="url(#clip250)" d="M128.246 686.524 Q124.635 686.524 122.807 690.088 Q121.001 693.63 121.001 700.76 Q121.001 707.866 122.807 711.431 Q124.635 714.972 128.246 714.972 Q131.881 714.972 133.686 711.431 Q135.515 707.866 135.515 700.76 Q135.515 693.63 133.686 690.088 Q131.881 686.524 128.246 686.524 M128.246 682.82 Q134.056 682.82 137.112 687.426 Q140.191 692.01 140.191 700.76 Q140.191 709.486 137.112 714.093 Q134.056 718.676 128.246 718.676 Q122.436 718.676 119.357 714.093 Q116.302 709.486 116.302 700.76 Q116.302 692.01 119.357 687.426 Q122.436 682.82 128.246 682.82 Z" fill="#000000" fill-rule="evenodd" fill-opacity="1" /><polyline clip-path="url(#clip252)" style="stroke:#009af9; stroke-linecap:round; stroke-linejoin:round; stroke-width:4; stroke-opacity:1; fill:none" points="
  306.395,544.986 307.28,520.806 308.165,495.417 309.05,469.105 309.936,442.162 310.821,414.888 311.706,387.585 312.591,360.557 313.476,334.104 314.361,308.521 
  315.246,284.092 316.131,261.094 317.016,239.785 317.901,220.408 318.786,203.188 319.671,188.327 320.556,176.003 321.441,166.369 322.326,159.552 323.211,155.65 
  324.096,154.733 324.981,156.838 325.866,161.976 326.751,170.124 327.636,181.233 328.521,195.22 329.406,211.975 330.291,231.362 331.176,253.216 332.061,277.35 
  332.947,303.551 333.832,331.589 334.717,361.212 335.602,392.155 336.487,424.138 337.372,456.871 338.257,490.058 339.142,523.397 340.027,556.583 340.912,589.316 
  341.797,621.298 342.682,652.24 343.567,681.861 344.452,709.896 345.337,736.094 346.222,760.223 347.107,782.072 347.992,801.452 348.877,818.199 349.762,832.176 
  350.647,843.271 351.532,851.405 352.417,856.525 353.302,858.61 354.187,857.668 355.072,853.739 355.958,846.89 356.843,837.221 357.728,824.857 358.613,809.952 
  359.498,792.683 360.383,773.252 361.268,751.884 362.153,728.821 363.038,704.322 363.923,678.663 364.808,652.129 365.693,625.013 366.578,597.618 367.463,570.245 
  368.348,543.197 369.233,516.775 370.118,491.27 371.003,466.968 371.888,444.14 372.773,423.044 373.658,403.92 374.543,386.988 375.428,372.446 376.313,360.468 
  377.198,351.205 378.084,344.777 378.969,341.277 379.854,340.77 380.739,343.291 381.624,348.841 382.509,357.397 383.394,368.9 384.279,383.266 385.164,400.379 
  386.049,420.097 386.934,442.253 387.819,466.654 388.704,493.086 389.589,521.312 390.474,551.081 391.359,582.123 392.244,614.157 393.129,646.893 394.014,680.031 
  394.899,713.27 395.784,746.306 396.669,778.838 397.554,810.569 398.439,841.213 399.324,870.49 400.209,898.138 401.095,923.908 401.98,947.573 402.865,968.924 
  403.75,987.776 404.635,1003.97 405.52,1017.37 406.405,1027.88 407.29,1035.42 408.175,1039.93 409.06,1041.41 409.945,1039.87 410.83,1035.35 411.715,1027.92 
  412.6,1017.69 413.485,1004.79 414.37,989.383 415.255,971.64 416.14,951.772 417.025,930.006 417.91,906.588 418.795,881.779 419.68,855.857 420.565,829.109 
  421.45,801.83 422.335,774.322 423.22,746.887 424.106,719.828 424.991,693.444 425.876,668.027 426.761,643.859 427.646,621.209 428.531,600.333 429.416,581.467 
  430.301,564.828 431.186,550.61 432.071,538.984 432.956,530.094 433.841,524.057 434.726,520.962 435.611,520.867 436.496,523.802 437.381,529.765 438.266,538.726 
  439.151,550.622 440.036,565.363 440.921,582.829 441.806,602.874 442.691,625.327 443.576,649.989 444.461,676.644 445.346,705.053 446.232,734.959 447.117,766.093 
  448.002,798.17 448.887,830.899 449.772,863.98 450.657,897.11 451.542,929.987 452.427,962.309 453.312,993.783 454.197,1024.12 455.082,1053.05 455.967,1080.3 
  456.852,1105.64 457.737,1128.83 458.622,1149.68 459.507,1168 460.392,1183.64 461.277,1196.46 462.162,1206.38 463.047,1213.31 463.932,1217.22 464.817,1218.1 
  465.702,1215.95 466.587,1210.84 467.472,1202.84 468.357,1192.06 469.243,1178.63 470.128,1162.72 471.013,1144.51 471.898,1124.21 472.783,1102.06 473.668,1078.29 
  474.553,1053.18 475.438,1027 476.323,1000.05 477.208,972.613 478.093,945.001 478.978,917.513 479.863,890.451 480.748,864.114 481.633,838.792 482.518,814.765 
  483.403,792.301 484.288,771.652 485.173,753.05 486.058,736.71 486.943,722.821 487.828,711.551 488.713,703.037 489.598,697.394 490.483,694.705 491.368,695.023 
  492.254,698.372 493.139,704.747 494.024,714.111 494.909,726.397 495.794,741.51 496.679,759.325 497.564,779.693 498.449,802.436 499.334,827.354 500.219,854.226 
  501.104,882.809 501.989,912.846 502.874,944.063 503.759,976.175 504.644,1008.89 505.529,1041.9 506.414,1074.92 507.299,1107.63 508.184,1139.73 509.069,1170.94 
  509.954,1200.96 510.839,1229.53 511.724,1256.38 512.609,1281.28 513.494,1303.99 514.38,1324.33 515.265,1342.12 516.15,1357.2 517.035,1369.45 517.92,1378.77 
  518.805,1385.1 519.69,1388.4 520.575,1388.67 521.46,1385.93 522.345,1380.23 523.23,1371.66 524.115,1360.33 525,1346.38 525.885,1329.97 526.77,1311.3 
  527.655,1290.57 528.54,1268.03 529.425,1243.92 530.31,1218.52 531.195,1192.1 532.08,1164.95 532.965,1137.36 533.85,1109.66 534.735,1082.12 535.62,1055.07 
  536.505,1028.79 537.391,1003.57 538.276,979.689 539.161,957.418 540.046,937.001 540.931,918.67 541.816,902.634 542.701,889.08 543.586,878.168 544.471,870.035 
  545.356,864.788 546.241,862.506 547.126,863.237 548.011,867.002 548.896,873.787 549.781,883.552 550.666,896.226 551.551,911.707 552.436,929.867 553.321,950.552 
  554.206,973.58 555.091,998.747 555.976,1025.83 556.861,1054.58 557.746,1084.74 558.631,1116.03 559.517,1148.17 560.402,1180.86 561.287,1213.8 562.172,1246.69 
  563.057,1279.22 563.942,1311.1 564.827,1342.03 565.712,1371.73 566.597,1399.93 567.482,1426.38 568.367,1450.83 569.252,1473.06 570.137,1492.89 571.022,1510.13 
  571.907,1524.65 572.792,1536.32 573.677,1545.05 574.562,1550.77 575.447,1553.47 576.332,1553.14 577.217,1549.8 578.102,1543.51 578.987,1534.37 579.872,1522.5 
  580.757,1508.02 581.642,1491.12 582.528,1472 583.413,1450.85 584.298,1427.94 585.183,1403.5 586.068,1377.81 586.953,1351.14 587.838,1323.8 588.723,1296.09 
  589.608,1268.29 590.493,1240.72 591.378,1213.68 592.263,1187.46 593.148,1162.35 594.033,1138.63 594.918,1116.56 595.803,1096.38 596.688,1078.33 597.573,1062.6 
  598.458,1049.39 599.343,1038.84 600.228,1031.09 601.113,1026.24 601.998,1024.37 602.883,1025.51 603.768,1029.69 604.653,1036.88 605.539,1047.05 606.424,1060.11 
  607.309,1075.95 608.194,1094.45 609.079,1115.45 609.964,1138.76 610.849,1164.17 611.734,1191.45 612.619,1220.36 613.504,1250.64 614.389,1282 615.274,1314.15 
  616.159,1346.81 617.044,1379.67 617.929,1412.42 618.814,1444.77 619.699,1476.41 620.584,1507.06 621.469,1536.44 622.354,1564.26 623.239,1590.29 624.124,1614.29 
  625.009,1636.04 625.894,1655.35 626.779,1672.05 627.665,1685.99 628.55,1697.08 629.435,1705.21 630.32,1710.34 631.205,1712.43 632.09,1711.49 632.975,1707.55 
  633.86,1700.69 634.745,1690.98 635.63,1678.56 636.515,1663.57 637.4,1646.19 638.285,1626.61 639.17,1605.06 640.055,1581.77 640.94,1557.01 641.825,1531.04 
  642.71,1504.15 643.595,1476.63 644.48,1448.78 645.365,1420.9 646.25,1393.31 647.135,1366.29 648.02,1340.14 648.905,1315.15 649.79,1291.59 650.676,1269.73 
  651.561,1249.8 652.446,1232.03 653.331,1216.61 654.216,1203.74 655.101,1193.56 655.986,1186.2 656.871,1181.75 657.756,1180.28 658.641,1181.84 659.526,1186.44 
  660.411,1194.04 661.296,1204.6 662.181,1218.04 663.066,1234.25 663.951,1253.08 664.836,1274.39 665.721,1297.97 666.606,1323.61 667.491,1351.09 668.376,1380.16 
  669.261,1410.54 670.146,1441.96 671.031,1474.12 671.916,1506.74 672.801,1539.51 673.687,1572.12 674.572,1604.27 675.457,1635.68 676.342,1666.03 677.227,1695.07 
  678.112,1722.52 678.997,1748.12 679.882,1771.66 680.767,1792.92 681.652,1811.7 682.537,1827.85 683.422,1841.23 684.307,1851.73 685.192,1859.26 686.077,1863.78 
  686.962,1865.27 687.847,1863.73 688.732,1859.2 689.617,1851.75 690.502,1841.49 691.387,1828.53 692.272,1813.03 693.157,1795.17 694.042,1775.15 694.927,1753.19 
  695.813,1729.54 696.698,1704.46 697.583,1678.22 698.468,1651.1 699.353,1623.41 700.238,1595.44 701.123,1567.5 702.008,1539.88 702.893,1512.89 703.778,1486.83 
  704.663,1461.96 705.548,1438.58 706.433,1416.93 707.318,1397.25 708.203,1379.76 709.088,1364.67 709.973,1352.15 710.858,1342.33 711.743,1335.36 712.628,1331.31 
  713.513,1330.26 714.398,1332.24 715.283,1337.24 716.168,1345.25 717.053,1356.21 717.938,1370.02 718.824,1386.59 719.709,1405.76 720.594,1427.36 721.479,1451.21 
  722.364,1477.09 723.249,1504.75 724.134,1533.96 725.019,1564.44 725.904,1595.91 726.789,1628.08 727.674,1660.65 728.559,1693.31 729.444,1725.77 730.329,1757.73 
  731.214,1788.88 732.099,1818.94 732.984,1847.63 733.869,1874.69 734.754,1899.87 735.639,1922.94 736.524,1943.7 737.409,1961.96 738.294,1977.56 739.179,1990.36 
  740.064,2000.27 740.949,2007.2 741.835,2011.12 742.72,2012 743.605,2009.86 744.49,2004.74 745.375,1996.71 746.26,1985.89 747.145,1972.4 748.03,1956.39 
  748.915,1938.06 749.8,1917.6 750.685,1895.24 751.57,1871.24 752.455,1845.85 753.34,1819.34 754.225,1792.02 755.11,1764.16 755.995,1736.08 756.88,1708.08 
  757.765,1680.45 758.65,1653.5 759.535,1627.52 760.42,1602.79 761.305,1579.58 762.19,1558.15 763.075,1538.73 763.961,1521.54 764.846,1506.77 765.731,1494.6 
  766.616,1485.16 767.501,1478.58 768.386,1474.94 769.271,1474.3 770.156,1476.69 771.041,1482.1 771.926,1490.52 772.811,1501.87 773.696,1516.06 774.581,1532.98 
  775.466,1552.47 776.351,1574.37 777.236,1598.48 778.121,1624.58 779.006,1652.43 779.891,1681.78 780.776,1712.35 781.661,1743.86 782.546,1776.02 783.431,1808.53 
  784.316,1841.09 785.201,1873.39 786.086,1905.13 786.972,1936.03 787.857,1965.78 788.742,1994.12 789.627,2020.78 790.512,2045.53 791.397,2068.13 792.282,2088.38 
  793.167,2106.11 794.052,2121.15 794.937,2133.38 795.822,2142.7 796.707,2149.03 797.592,2152.34 798.477,2152.62 799.362,2149.88 800.247,2144.17 801.132,2135.57 
  802.017,2124.19 802.902,2110.17 803.787,2093.66 804.672,2074.86 805.557,2053.97 806.442,2031.22 807.327,2006.87 808.212,1981.18 809.097,1954.42 809.983,1926.89 
  810.868,1898.88 811.753,1870.69 812.638,1842.64 813.523,1815.01 814.408,1788.11 815.293,1762.22 816.178,1737.64 817.063,1714.61 817.948,1693.41 818.833,1674.25 
  819.718,1657.36 820.603,1642.92 821.488,1631.1 822.373,1622.04 823.258,1615.85 824.143,1612.62 825.028,1612.39 825.913,1615.2 826.798,1621.03 827.683,1629.84 
  828.568,1641.58 829.453,1656.15 830.338,1673.41 831.223,1693.23 832.109,1715.42 832.994,1739.78 833.879,1766.1 834.764,1794.13 835.649,1823.6 836.534,1854.25 
  837.419,1885.8 838.304,1917.95 839.189,1950.39 840.074,1982.83 840.959,2014.96 841.844,2046.49 842.729,2077.11 843.614,2106.55 844.499,2134.53 845.384,2160.8 
  846.269,2185.1 847.154,2207.23 848.039,2226.97 848.924,2244.16 849.809,2258.64 850.694,2270.29 851.579,2279.02 852.464,2284.75 853.349,2287.45 854.234,2287.12 
  855.12,2283.78 856.005,2277.49 856.89,2268.32 857.775,2256.39 858.66,2241.84 859.545,2224.84 860.43,2205.58 861.315,2184.26 862.2,2161.13 863.085,2136.44 
  863.97,2110.45 864.855,2083.45 865.74,2055.72 866.625,2027.57 867.51,1999.29 868.395,1971.18 869.28,1943.56 870.165,1916.71 871.05,1890.93 871.935,1866.5 
  872.82,1843.67 873.705,1822.7 874.59,1803.81 875.475,1787.23 876.36,1773.12 877.245,1761.66 878.131,1752.98 879.016,1747.19 879.901,1744.36 880.786,1744.55 
  881.671,1747.76 882.556,1754 883.441,1763.22 884.326,1775.35 885.211,1790.28 886.096,1807.89 886.981,1828.03 887.866,1850.5 888.751,1875.12 889.636,1901.64 
  890.521,1929.83 891.406,1959.43 892.291,1990.16 893.176,2021.73 894.061,2053.85 894.946,2086.22 895.831,2118.54 896.716,2150.49 897.601,2181.79 898.486,2212.14 
  899.371,2241.26 900.257,2268.87 901.142,2294.73 902.027,2318.58 902.912,2340.23 903.797,2359.46 904.682,2376.11 905.567,2390.02 906.452,2401.09 907.337,2409.22 
  908.222,2414.35 909.107,2416.45 909.992,2415.52 910.877,2411.58 911.762,2404.7 912.647,2394.96 913.532,2382.49 914.417,2367.42 915.302,2349.93 916.187,2330.21 
  917.072,2308.48 917.957,2284.97 918.842,2259.95 919.727,2233.67 920.612,2206.43 921.497,2178.51 922.382,2150.22 923.268,2121.85 924.153,2093.72 925.038,2066.11 
  925.923,2039.33 926.808,2013.66 927.693,1989.38 928.578,1966.75 929.463,1946.02 930.348,1927.41 931.233,1911.13 932.118,1897.37 933.003,1886.27 933.888,1877.97 
  934.773,1872.58 935.658,1870.16 936.543,1870.76 937.428,1874.39 938.313,1881.04 939.198,1890.66 940.083,1903.17 940.968,1918.47 941.853,1936.42 942.738,1956.86 
  943.623,1979.62 944.508,2004.47 945.393,2031.2 946.279,2059.55 947.164,2089.26 948.049,2120.06 948.934,2151.65 949.819,2183.74 950.704,2216.02 951.589,2248.2 
  952.474,2279.97 953.359,2311.04 954.244,2341.11 955.129,2369.89 956.014,2397.13 956.899,2422.57 957.784,2445.98 958.669,2467.13 959.554,2485.85 960.439,2501.95 
  961.324,2515.3 962.209,2525.79 963.094,2533.32 963.979,2537.85 964.864,2539.34 965.749,2537.8 966.634,2533.27 967.519,2525.8 968.405,2515.5 969.29,2502.48 
  970.175,2486.9 971.06,2468.92 971.945,2448.75 972.83,2426.61 973.715,2402.74 974.6,2377.39 975.485,2350.84 976.37,2323.37 977.255,2295.27 978.14,2266.85 
  979.025,2238.4 979.91,2210.24 980.795,2182.65 981.68,2155.94 982.565,2130.39 983.45,2106.28 984.335,2083.85 985.22,2063.37 986.105,2045.04 986.99,2029.08 
  987.875,2015.66 988.76,2004.93 989.645,1997.02 990.53,1992.03 991.416,1990.02 992.301,1991.03 993.186,1995.08 994.071,2002.13 994.956,2012.15 995.841,2025.04 
  996.726,2040.7 997.611,2058.99 998.496,2079.74 999.381,2102.77 1000.27,2127.86 1001.15,2154.78 1002.04,2183.28 1002.92,2213.1 1003.81,2243.96 1004.69,2275.56 
  1005.58,2307.6 1006.46,2339.8 1007.35,2371.83 1008.23,2403.41 1009.12,2434.23 1010,2464.01 1010.89,2492.46 1011.77,2519.32 1012.66,2544.34 1013.54,2567.28 
  1014.43,2587.94 1015.31,2606.13 1016.2,2621.69 1017.08,2634.47 1017.97,2644.37 1018.85,2651.3 1019.74,2655.22 1020.62,2656.11 1021.51,2653.97 1022.39,2648.84 
  1023.28,2640.8 1024.16,2629.94 1025.05,2616.38 1025.93,2600.29 1026.82,2581.83 1027.7,2561.22 1028.59,2538.67 1029.47,2514.44 1030.36,2488.77 1031.24,2461.95 
  1032.13,2434.26 1033.01,2405.99 1033.9,2377.45 1034.78,2348.93 1035.67,2320.75 1036.55,2293.19 1037.44,2266.56 1038.32,2241.14 1039.21,2217.2 1040.09,2194.99 
  1040.98,2174.76 1041.86,2156.72 1042.75,2141.08 1043.63,2128 1044.52,2117.64 1045.4,2110.12 1046.29,2105.53 1047.17,2103.93 1048.06,2105.36 1048.94,2109.82 
  1049.83,2117.28 1050.71,2127.69 1051.6,2140.96 1052.48,2156.98 1053.37,2175.6 1054.25,2196.65 1055.14,2219.95 1056.02,2245.27 1056.91,2272.38 1057.79,2301.03 
  1058.68,2330.94 1059.56,2361.85 1060.45,2393.45 1061.33,2425.45 1062.22,2457.54 1063.1,2489.42 1063.99,2520.8 1064.87,2551.37 1065.76,2580.85 1066.64,2608.95 
  1067.53,2635.42 1068.41,2660.01 1069.3,2682.49 1070.18,2702.66 1071.07,2720.32 1071.95,2735.32 1072.84,2747.53 1073.72,2756.84 1074.61,2763.17 1075.49,2766.49 
  1076.38,2766.77 1077.26,2764.03 1078.15,2758.31 1079.03,2749.69 1079.92,2738.27 1080.8,2724.18 1081.69,2707.58 1082.57,2688.65 1083.46,2667.6 1084.34,2644.66 
  1085.23,2620.07 1086.11,2594.1 1087,2567.01 1087.88,2539.11 1088.77,2510.68 1089.65,2482.02 1090.54,2453.44 1091.42,2425.25 1092.31,2397.74 1093.19,2371.19 
  1094.08,2345.91 1094.97,2322.14 1095.85,2300.15 1096.74,2280.18 1097.62,2262.44 1098.51,2247.12 1099.39,2234.4 1100.28,2224.41 1101.16,2217.28 1102.05,2213.09 
  1102.93,2211.91 1103.82,2213.75 1104.7,2218.62 1105.59,2226.49 1106.47,2237.29 1107.36,2250.94 1108.24,2267.31 1109.13,2286.25 1110.01,2307.6 1110.9,2331.16 
  1111.78,2356.7 1112.67,2383.99 1113.55,2412.78 1114.44,2442.79 1115.32,2473.73 1116.21,2505.33 1117.09,2537.26 1117.98,2569.25 1118.86,2600.97 1119.75,2632.14 
  1120.63,2662.45 1121.52,2691.62 1122.4,2719.37 1123.29,2745.45 1124.17,2769.6 1125.06,2791.61 1125.94,2811.27 1126.83,2828.4 1127.71,2842.85 1128.6,2854.48 
  1129.48,2863.2 1130.37,2868.93 1131.25,2871.64 1132.14,2871.32 1133.02,2867.98 1133.91,2861.67 1134.79,2852.47 1135.68,2840.5 1136.56,2825.88 1137.45,2808.78 
  1138.33,2789.39 1139.22,2767.91 1140.1,2744.57 1140.99,2719.64 1141.87,2693.36 1142.76,2666.02 1143.64,2637.91 1144.53,2609.33 1145.41,2580.57 1146.3,2551.94 
  1147.18,2523.75 1148.07,2496.28 1148.95,2469.83 1149.84,2444.69 1150.72,2421.11 1151.61,2399.35 1152.49,2379.64 1153.38,2362.2 1154.26,2347.21 1155.15,2334.84 
  1156.03,2325.23 1156.92,2318.5 1157.8,2314.71 1158.69,2313.94 1159.57,2316.2 1160.46,2321.48 1161.34,2329.75 1162.23,2340.95 1163.11,2354.96 1164,2371.68 
  1164.88,2390.95 1165.77,2412.59 1166.65,2436.4 1167.54,2462.16 1168.42,2489.62 1169.31,2518.54 1170.19,2548.63 1171.08,2579.61 1171.96,2611.18 1172.85,2643.06 
  1173.73,2674.92 1174.62,2706.48 1175.5,2737.43 1176.39,2767.47 1177.27,2796.32 1178.16,2823.72 1179.04,2849.39 1179.93,2873.11 1180.81,2894.64 1181.7,2913.79 
  1182.58,2930.38 1183.47,2944.27 1184.35,2955.32 1185.24,2963.45 1186.12,2968.58 1187.01,2970.68 1187.89,2969.75 1188.78,2965.81 1189.66,2958.92 1190.55,2949.15 
  1191.43,2936.63 1192.32,2921.48 1193.2,2903.89 1194.09,2884.03 1194.97,2862.13 1195.86,2838.42 1196.74,2813.14 1197.63,2786.57 1198.51,2758.98 1199.4,2730.68 
  1200.28,2701.95 1201.17,2673.09 1202.05,2644.42 1202.94,2616.23 1203.82,2588.82 1204.71,2562.48 1205.59,2537.48 1206.48,2514.1 1207.37,2492.57 1208.25,2473.14 
  1209.14,2456 1210.02,2441.34 1210.91,2429.34 1211.79,2420.11 1212.68,2413.77 1213.56,2410.39 1214.45,2410.03 1215.33,2412.71 1216.22,2418.4 1217.1,2427.07 
  1217.99,2438.65 1218.87,2453.04 1219.76,2470.1 1220.64,2489.68 1221.53,2511.61 1222.41,2535.66 1223.3,2561.63 1224.18,2589.27 1225.07,2618.3 1225.95,2648.47 
  1226.84,2679.47 1227.72,2711.03 1228.61,2742.82 1229.49,2774.56 1230.38,2805.94 1231.26,2836.66 1232.15,2866.43 1233.03,2894.96 1233.92,2921.99 1234.8,2947.25 
  1235.69,2970.52 1236.57,2991.57 1237.46,3010.21 1238.34,3026.26 1239.23,3039.58 1240.11,3050.05 1241,3057.58 1241.88,3062.11 1242.77,3063.61 1243.65,3062.08 
  1244.54,3057.54 1245.42,3050.06 1246.31,3039.73 1247.19,3026.66 1248.08,3010.99 1248.96,2992.91 1249.85,2972.6 1250.73,2950.28 1251.62,2926.19 1252.5,2900.58 
  1253.39,2873.72 1254.27,2845.9 1255.16,2817.41 1256.04,2788.54 1256.93,2759.6 1257.81,2730.89 1258.7,2702.72 1259.58,2675.37 1260.47,2649.14 1261.35,2624.3 
  1262.24,2601.12 1263.12,2579.83 1264.01,2560.67 1264.89,2543.84 1265.78,2529.53 1266.66,2517.88 1267.55,2509.04 1268.43,2503.1 1269.32,2500.13 1270.2,2500.19 
  1271.09,2503.27 1271.97,2509.38 1272.86,2518.45 1273.74,2530.41 1274.63,2545.16 1275.51,2562.56 1276.4,2582.46 1277.28,2604.66 1278.17,2628.96 1279.05,2655.13 
  1279.94,2682.92 1280.82,2712.07 1281.71,2742.3 1282.59,2773.33 1283.48,2804.85 1284.36,2836.56 1285.25,2868.17 1286.13,2899.36 1287.02,2929.84 1287.9,2959.33 
  1288.79,2987.53 1289.67,3014.18 1290.56,3039.03 1291.44,3061.85 1292.33,3082.41 1293.21,3100.53 1294.1,3116.03 1294.98,3128.79 1295.87,3138.67 1296.75,3145.61 
  1297.64,3149.53 1298.52,3150.43 1299.41,3148.29 1300.29,3143.16 1301.18,3135.1 1302.06,3124.2 1302.95,3110.58 1303.83,3094.41 1304.72,3075.84 1305.6,3055.08 
  1306.49,3032.35 1307.37,3007.89 1308.26,2981.95 1309.14,2954.82 1310.03,2926.77 1310.91,2898.1 1311.8,2869.1 1312.68,2840.08 1313.57,2811.35 1314.45,2783.2 
  1315.34,2755.92 1316.22,2729.81 1317.11,2705.14 1317.99,2682.16 1318.88,2661.12 1319.76,2642.24 1320.65,2625.73 1321.54,2611.76 1322.42,2600.48 1323.31,2592.02 
  1324.19,2586.48 1325.08,2583.93 1325.96,2584.4 1326.85,2587.9 1327.73,2594.41 1328.62,2603.88 1329.5,2616.22 1330.39,2631.33 1331.27,2649.07 1332.16,2669.27 
  1333.04,2691.75 1333.93,2716.28 1334.81,2742.65 1335.7,2770.59 1336.58,2799.85 1337.47,2830.14 1338.35,2861.17 1339.24,2892.65 1340.12,2924.27 1341.01,2955.73 
  1341.89,2986.73 1342.78,3016.97 1343.66,3046.16 1344.55,3074.03 1345.43,3100.3 1346.32,3124.73 1347.2,3147.08 1348.09,3167.15 1348.97,3184.74 1349.86,3199.7 
  1350.74,3211.88 1351.63,3221.19 1352.51,3227.52 1353.4,3230.84 1354.28,3231.13 1355.17,3228.39 1356.05,3222.67 1356.94,3214.02 1357.82,3202.56 1358.71,3188.41 
  1359.59,3171.72 1360.48,3152.68 1361.36,3131.47 1362.25,3108.34 1363.13,3083.52 1364.02,3057.27 1364.9,3029.86 1365.79,3001.59 1366.67,2972.75 1367.56,2943.63 
  1368.44,2914.55 1369.33,2885.8 1370.21,2857.68 1371.1,2830.48 1371.98,2804.5 1372.87,2780 1373.75,2757.23 1374.64,2736.45 1375.52,2717.86 1376.41,2701.66 
  1377.29,2688.04 1378.18,2677.13 1379.06,2669.07 1379.95,2663.93 1380.83,2661.78 1381.72,2662.67 1382.6,2666.58 1383.49,2673.5 1384.37,2683.36 1385.26,2696.09 
  1386.14,2711.55 1387.03,2729.62 1387.91,2750.12 1388.8,2772.86 1389.68,2797.63 1390.57,2824.18 1391.45,2852.27 1392.34,2881.62 1393.22,2911.96 1394.11,2943 
  1394.99,2974.42 1395.88,3005.94 1396.76,3037.25 1397.65,3068.05 1398.53,3098.04 1399.42,3126.93 1400.3,3154.45 1401.19,3180.34 1402.07,3204.34 1402.96,3226.22 
  1403.84,3245.79 1404.73,3262.86 1405.61,3277.26 1406.5,3288.87 1407.38,3297.59 1408.27,3303.32 1409.15,3306.04 1410.04,3305.72 1410.92,3302.38 1411.81,3296.06 
  1412.69,3286.84 1413.58,3274.83 1414.46,3260.14 1415.35,3242.95 1416.23,3223.43 1417.12,3201.79 1418,3178.26 1418.89,3153.08 1419.77,3126.52 1420.66,3098.86 
  1421.54,3070.37 1422.43,3041.37 1423.31,3012.14 1424.2,2982.99 1425.08,2954.23 1425.97,2926.15 1426.85,2899.05 1427.74,2873.2 1428.62,2848.88 1429.51,2826.33 
  1430.39,2805.81 1431.28,2787.51 1432.16,2771.64 1433.05,2758.37 1433.94,2747.84 1434.82,2740.16 1435.71,2735.43 1436.59,2733.7 1437.48,2735 1438.36,2739.32 
  1439.25,2746.65 1440.13,2756.9 1441.02,2770 1441.9,2785.82 1442.79,2804.21 1443.67,2825.01 1444.56,2848.01 1445.44,2873 1446.33,2899.73 1447.21,2927.96 
  1448.1,2957.4 1448.98,2987.78 1449.87,3018.81 1450.75,3050.18 1451.64,3081.59 1452.52,3112.74 1453.41,3143.32 1454.29,3173.05 1455.18,3201.64 1456.06,3228.81 
  1456.95,3254.29 1457.83,3277.86 1458.72,3299.27 1459.6,3318.34 1460.49,3334.87 1461.37,3348.72 1462.26,3359.76 1463.14,3367.88 1464.03,3373.01 1464.91,3375.12 
  1465.8,3374.2 1466.68,3370.26 1467.57,3363.35 1468.45,3353.56 1469.34,3340.99 1470.22,3325.77 1471.11,3308.08 1471.99,3288.09 1472.88,3266.03 1473.76,3242.1 
  1474.65,3216.58 1475.53,3189.72 1476.42,3161.8 1477.3,3133.11 1478.19,3103.95 1479.07,3074.62 1479.96,3045.43 1480.84,3016.66 1481.73,2988.63 1482.61,2961.62 
  1483.5,2935.92 1484.38,2911.78 1485.27,2889.47 1486.15,2869.2 1487.04,2851.21 1487.92,2835.67 1488.81,2822.76 1489.69,2812.6 1490.58,2805.32 1491.46,2800.99 
  1492.35,2799.67 1493.23,2801.38 1494.12,2806.12 1495,2813.85 1495.89,2824.49 1496.77,2837.96 1497.66,2854.13 1498.54,2872.85 1499.43,2893.93 1500.31,2917.19 
  1501.2,2942.39 1502.08,2969.3 1502.97,2997.65 1503.85,3027.18 1504.74,3057.6 1505.62,3088.6 1506.51,3119.91 1507.39,3151.2 1508.28,3182.18 1509.16,3212.54 
  1510.05,3242.01 1510.93,3270.28 1511.82,3297.08 1512.7,3322.17 1513.59,3345.29 1514.47,3366.23 1515.36,3384.79 1516.24,3400.79 1517.13,3414.07 1518.01,3424.53 
  1518.9,3432.05 1519.78,3436.59 1520.67,3438.09 1521.55,3436.56 1522.44,3432.03 1523.32,3424.53 1524.21,3414.17 1525.09,3401.05 1525.98,3385.31 1526.86,3367.12 
  1527.75,3346.67 1528.63,3324.18 1529.52,3299.88 1530.4,3274.02 1531.29,3246.86 1532.17,3218.7 1533.06,3189.81 1533.94,3160.51 1534.83,3131.08 1535.71,3101.84 
  1536.6,3073.09 1537.48,3045.11 1538.37,3018.21 1539.25,2992.65 1540.14,2968.71 1541.02,2946.63 1541.91,2926.64 1542.79,2908.95 1543.68,2893.75 1544.56,2881.19 
  1545.45,2871.41 1546.33,2864.53 1547.22,2860.61 1548.11,2859.7 1548.99,2861.83 1549.88,2866.98 1550.76,2875.11 1551.65,2886.14 1552.53,2899.97 1553.42,2916.49 
  1554.3,2935.52 1555.19,2956.89 1556.07,2980.39 1556.96,3005.81 1557.84,3032.88 1558.73,3061.36 1559.61,3090.96 1560.5,3121.4 1561.38,3152.38 1562.27,3183.61 
  1563.15,3214.77 1564.04,3245.57 1564.92,3275.71 1565.81,3304.9 1566.69,3332.85 1567.58,3359.29 1568.46,3383.96 1569.35,3406.64 1570.23,3427.1 1571.12,3445.14 
  1572,3460.59 1572.89,3473.32 1573.77,3483.19 1574.66,3490.12 1575.54,3494.05 1576.43,3494.95 1577.31,3492.82 1578.2,3487.68 1579.08,3479.6 1579.97,3468.67 
  1580.85,3455.01 1581.74,3438.75 1582.62,3420.07 1583.51,3399.17 1584.39,3376.26 1585.28,3351.58 1586.16,3325.39 1587.05,3297.95 1587.93,3269.55 1588.82,3240.48 
  1589.7,3211.03 1590.59,3181.52 1591.47,3152.25 1592.36,3123.51 1593.24,3095.6 1594.13,3068.8 1595.01,3043.41 1595.9,3019.66 1596.78,2997.82 1597.67,2978.11 
  1598.55,2960.73 1599.44,2945.87 1600.32,2933.68 1601.21,2924.28 1602.09,2917.8 1602.98,2914.29 1603.86,2913.79 1604.75,2916.34 1605.63,2921.89 1606.52,2930.42 
  1607.4,2941.84 1608.29,2956.04 1609.17,2972.89 1610.06,2992.23 1610.94,3013.88 1611.83,3037.63 1612.71,3063.24 1613.6,3090.47 1614.48,3119.06 1615.37,3148.73 
  1616.25,3179.19 1617.14,3210.14 1618.02,3241.28 1618.91,3272.31 1619.79,3302.92 1620.68,3332.83 1621.56,3361.73 1622.45,3389.35 1623.33,3415.41 1624.22,3439.67 
  1625.1,3461.89 1625.99,3481.86 1626.87,3499.39 1627.76,3514.3 1628.64,3526.45 1629.53,3535.74 1630.41,3542.08 1631.3,3545.4 1632.18,3545.7 1633.07,3542.96 
  1633.95,3537.23 1634.84,3528.57 1635.72,3517.07 1636.61,3502.86 1637.49,3486.09 1638.38,3466.93 1639.26,3445.58 1640.15,3422.26 1641.03,3397.21 1641.92,3370.7 
  1642.8,3342.98 1643.69,3314.35 1644.57,3285.1 1645.46,3255.53 1646.34,3225.94 1647.23,3196.64 1648.11,3167.92 1649,3140.09 1649.88,3113.41 1650.77,3088.18 
  1651.65,3064.65 1652.54,3043.05 1653.42,3023.62 1654.31,3006.56 1655.19,2992.04 1656.08,2980.21 1656.96,2971.21 1657.85,2965.12 1658.73,2962.02 1659.62,2961.94 
  1660.5,2964.9 1661.39,2970.87 1662.28,2979.79 1663.16,2991.59 1664.05,3006.15 1664.93,3023.33 1665.82,3042.98 1666.7,3064.9 1667.59,3088.89 1668.47,3114.69 
  1669.36,3142.08 1670.24,3170.77 1671.13,3200.5 1672.01,3230.96 1672.9,3261.87 1673.78,3292.92 1674.67,3323.81 1675.55,3354.23 1676.44,3383.89 1677.32,3412.5 
  1678.21,3439.78 1679.09,3465.46 1679.98,3489.3 1680.86,3511.06 1681.75,3530.54 1682.63,3547.53 1683.52,3561.9 1684.4,3573.48 1685.29,3582.18 1686.17,3587.92 
  1687.06,3590.64 1687.94,3590.33 1688.83,3586.99 1689.71,3580.67 1690.6,3571.43 1691.48,3559.37 1692.37,3544.62 1693.25,3527.34 1694.14,3507.7 1695.02,3485.91 
  1695.91,3462.19 1696.79,3436.78 1697.68,3409.94 1698.56,3381.96 1699.45,3353.11 1700.33,3323.69 1701.22,3294 1702.1,3264.34 1702.99,3235.02 1703.87,3206.34 
  1704.76,3178.58 1705.64,3152.04 1706.53,3126.98 1707.41,3103.66 1708.3,3082.32 1709.18,3063.18 1710.07,3046.43 1710.95,3032.26 1711.84,3020.8 1712.72,3012.19 
  1713.61,3006.51 1714.49,3003.82 1715.38,3004.15 1716.26,3007.52 1717.15,3013.89 1718.03,3023.21 1718.92,3035.39 1719.8,3050.3 1720.69,3067.82 1721.57,3087.77 
  1722.46,3109.96 1723.34,3134.17 1724.23,3160.17 1725.11,3187.69 1726,3216.49 1726.88,3246.26 1727.77,3276.73 1728.65,3307.58 1729.54,3338.53 1730.42,3369.26 
  1731.31,3399.48 1732.19,3428.89 1733.08,3457.2 1733.96,3484.13 1734.85,3509.43 1735.73,3532.84 1736.62,3554.13 1737.5,3573.11 1738.39,3589.58 1739.27,3603.39 
  1740.16,3614.4 1741.04,3622.51 1741.93,3627.65 1742.81,3629.77 1743.7,3628.85 1744.58,3624.91 1745.47,3618 1746.35,3608.18 1747.24,3595.56 1748.12,3580.28 
  1749.01,3562.5 1749.89,3542.39 1750.78,3520.16 1751.66,3496.04 1752.55,3470.27 1753.43,3443.13 1754.32,3414.89 1755.2,3385.82 1756.09,3356.24 1756.97,3326.44 
  1757.86,3296.72 1758.74,3267.4 1759.63,3238.75 1760.51,3211.08 1761.4,3184.67 1762.28,3159.79 1763.17,3136.7 1764.05,3115.62 1764.94,3096.77 1765.82,3080.35 
  1766.71,3066.53 1767.59,3055.45 1768.48,3047.23 1769.36,3041.95 1770.25,3039.67 1771.13,3040.42 1772.02,3044.2 1772.9,3050.98 1773.79,3060.69 1774.68,3073.24 
  1775.56,3088.51 1776.45,3106.35 1777.33,3126.6 1778.22,3149.05 1779.1,3173.48 1779.99,3199.65 1780.87,3227.32 1781.76,3256.2 1782.64,3286.02 1783.53,3316.47 
  1784.41,3347.27 1785.3,3378.11 1786.18,3408.68 1787.07,3438.69 1787.95,3467.84 1788.84,3495.84 1789.72,3522.42 1790.61,3547.32 1791.49,3570.29 1792.38,3591.12 
  1793.26,3609.59 1794.15,3625.53 1795.03,3638.78 1795.92,3649.21 1796.8,3656.73 1797.69,3661.27 1798.57,3662.78 1799.46,3661.26 1800.34,3656.72 1801.23,3649.21 
  1802.11,3638.82 1803,3625.66 1803.88,3609.85 1804.77,3591.56 1805.65,3570.98 1806.54,3548.32 1807.42,3523.81 1808.31,3497.71 1809.19,3470.26 1810.08,3441.76 
  1810.96,3412.5 1811.85,3382.76 1812.73,3352.86 1813.62,3323.09 1814.5,3293.76 1815.39,3265.17 1816.27,3237.59 1817.16,3211.33 1818.04,3186.64 1818.93,3163.76 
  1819.81,3142.95 1820.7,3124.4 1821.58,3108.32 1822.47,3094.85 1823.35,3084.15 1824.24,3076.32 1825.12,3071.45 1826.01,3069.58 1826.89,3070.75 1827.78,3074.94 
  1828.66,3082.12 1829.55,3092.22 1830.43,3105.14 1831.32,3120.76 1832.2,3138.92 1833.09,3159.46 1833.97,3182.16 1834.86,3206.81 1835.74,3233.16 1836.63,3260.95 
  1837.51,3289.91 1838.4,3319.76 1839.28,3350.2 1840.17,3380.93 1841.05,3411.65 1841.94,3442.05 1842.82,3471.84 1843.71,3500.72 1844.59,3528.41 1845.48,3554.63 
  1846.36,3579.13 1847.25,3601.66 1848.13,3622.01 1849.02,3639.97 1849.9,3655.37 1850.79,3668.06 1851.67,3677.91 1852.56,3684.84 1853.44,3688.78 1854.33,3689.68 
  1855.21,3687.56 1856.1,3682.42 1856.98,3674.33 1857.87,3663.36 1858.75,3649.65 1859.64,3633.31 1860.52,3614.53 1861.41,3593.49 1862.29,3570.41 1863.18,3545.52 
  1864.06,3519.07 1864.95,3491.34 1865.83,3462.59 1866.72,3433.13 1867.6,3403.25 1868.49,3373.25 1869.37,3343.44 1870.26,3314.12 1871.14,3285.58 1872.03,3258.12 
  1872.91,3232 1873.8,3207.5 1874.68,3184.87 1875.57,3164.32 1876.45,3146.08 1877.34,3130.33 1878.22,3117.22 1879.11,3106.9 1879.99,3099.47 1880.88,3095 
  1881.76,3093.55 1882.65,3095.14 1883.53,3099.74 1884.42,3107.32 1885.3,3117.8 1886.19,3131.09 1887.07,3147.06 1887.96,3165.54 1888.85,3186.35 1889.73,3209.3 
  1890.62,3234.16 1891.5,3260.67 1892.39,3288.59 1893.27,3317.63 1894.16,3347.5 1895.04,3377.91 1895.93,3408.57 1896.81,3439.16 1897.7,3469.38 1898.58,3498.94 
  1899.47,3527.55 1900.35,3554.91 1901.24,3580.76 1902.12,3604.85 1903.01,3626.94 1903.89,3646.8 1904.78,3664.25 1905.66,3679.11 1906.55,3691.23 1907.43,3700.51 
  1908.32,3706.84 1909.2,3710.17 1910.09,3710.47 1910.97,3707.74 1911.86,3702.01 1912.74,3693.33 1913.63,3681.8 1914.51,3667.54 1915.4,3650.68 1916.28,3631.41 
  1917.17,3609.92 1918.05,3586.42 1918.94,3561.16 1919.82,3534.38 1920.71,3506.36 1921.59,3477.38 1922.48,3447.73 1923.36,3417.71 1924.25,3387.63 1925.13,3357.78 
  1926.02,3328.48 1926.9,3300 1927.79,3272.65 1928.67,3246.69 1929.56,3222.39 1930.44,3200 1931.33,3179.73 1932.21,3161.8 1933.1,3146.39 1933.98,3133.65 
  1934.87,3123.71 1935.75,3116.68 1936.64,3112.62 1937.52,3111.58 1938.41,3113.58 1939.29,3118.59 1940.18,3126.57 1941.06,3137.44 1941.95,3151.09 1942.83,3167.4 
  1943.72,3186.19 1944.6,3207.28 1945.49,3230.47 1946.37,3255.53 1947.26,3282.2 1948.14,3310.23 1949.03,3339.34 1949.91,3369.22 1950.8,3399.61 1951.68,3430.17 
  1952.57,3460.63 1953.45,3490.67 1954.34,3519.99 1955.22,3548.31 1956.11,3575.34 1956.99,3600.82 1957.88,3624.49 1958.76,3646.12 1959.65,3665.5 1960.53,3682.43 
  1961.42,3696.74 1962.3,3708.3 1963.19,3716.99 1964.07,3722.73 1964.96,3725.45 1965.84,3725.15 1966.73,3721.81 1967.61,3715.48 1968.5,3706.22 1969.38,3694.13 
  1970.27,3679.33 1971.15,3661.96 1972.04,3642.2 1972.92,3620.26 1973.81,3596.35 1974.69,3570.72 1975.58,3543.62 1976.46,3515.32 1977.35,3486.11 1978.23,3456.29 
  1979.12,3426.14 1980,3395.98 1980.89,3366.11 1981.77,3336.83 1982.66,3308.43 1983.54,3281.19 1984.43,3255.4 1985.31,3231.31 1986.2,3209.17 1987.08,3189.18 
  1987.97,3171.57 1988.85,3156.5 1989.74,3144.13 1990.62,3134.57 1991.51,3127.94 1992.39,3124.3 1993.28,3123.67 1994.16,3126.08 1995.05,3131.5 1995.93,3139.88 
  1996.82,3151.13 1997.7,3165.14 1998.59,3181.78 1999.47,3200.88 2000.36,3222.24 2001.24,3245.67 2002.13,3270.92 2003.02,3297.75 2003.9,3325.88 2004.79,3355.04 
  2005.67,3384.94 2006.56,3415.27 2007.44,3445.75 2008.33,3476.06 2009.21,3505.91 2010.1,3534.98 2010.98,3563.01 2011.87,3589.71 2012.75,3614.8 2013.64,3638.05 
  2014.52,3659.22 2015.41,3678.1 2016.29,3694.51 2017.18,3708.27 2018.06,3719.26 2018.95,3727.36 2019.83,3732.5 2020.72,3734.62 2021.6,3733.71 2022.49,3729.77 
  2023.37,3722.85 2024.26,3713.01 2025.14,3700.36 2026.03,3685.02 2026.91,3667.14 2027.8,3646.91 2028.68,3624.52 2029.57,3600.21 2030.45,3574.22 2031.34,3546.8 
  2032.22,3518.23 2033.11,3488.8 2033.99,3458.81 2034.88,3428.54 2035.76,3398.32 2036.65,3368.43 2037.53,3339.18 2038.42,3310.86 2039.3,3283.75 2040.19,3258.14 
  2041.07,3234.26 2041.96,3212.37 2042.84,3192.67 2043.73,3175.38 2044.61,3160.66 2045.5,3148.66 2046.38,3139.49 2047.27,3133.26 2048.15,3130.03 2049.04,3129.82 
  2049.92,3132.64 2050.81,3138.47 2051.69,3147.24 2052.58,3158.87 2053.46,3173.24 2054.35,3190.21 2055.23,3209.6 2056.12,3231.24 2057,3254.89 2057.89,3280.33 
  2058.77,3307.3 2059.66,3335.53 2060.54,3364.74 2061.43,3394.64 2062.31,3424.92 2063.2,3455.3 2064.08,3485.45 2064.97,3515.09 2065.85,3543.92 2066.74,3571.65 
  2067.62,3598 2068.51,3622.7 2069.39,3645.52 2070.28,3666.23 2071.16,3684.61 2072.05,3700.48 2072.93,3713.69 2073.82,3724.11 2074.7,3731.62 2075.59,3736.16 
  2076.47,3737.68 2077.36,3736.16 2078.24,3731.62 2079.13,3724.11 2080.01,3713.69 2080.9,3700.48 2081.78,3684.61 2082.67,3666.23 2083.55,3645.52 2084.44,3622.7 
  2085.32,3598 2086.21,3571.65 2087.09,3543.92 2087.98,3515.09 2088.86,3485.45 2089.75,3455.3 2090.63,3424.92 2091.52,3394.64 2092.4,3364.74 2093.29,3335.53 
  2094.17,3307.3 2095.06,3280.33 2095.94,3254.89 2096.83,3231.24 2097.71,3209.6 2098.6,3190.21 2099.48,3173.24 2100.37,3158.87 2101.25,3147.24 2102.14,3138.47 
  2103.02,3132.64 2103.91,3129.82 2104.79,3130.03 2105.68,3133.26 2106.56,3139.49 2107.45,3148.66 2108.33,3160.66 2109.22,3175.38 2110.1,3192.67 2110.99,3212.37 
  2111.87,3234.26 2112.76,3258.14 2113.64,3283.75 2114.53,3310.86 2115.42,3339.18 2116.3,3368.43 2117.19,3398.32 2118.07,3428.54 2118.96,3458.81 2119.84,3488.8 
  2120.73,3518.23 2121.61,3546.8 2122.5,3574.22 2123.38,3600.21 2124.27,3624.52 2125.15,3646.91 2126.04,3667.14 2126.92,3685.02 2127.81,3700.36 2128.69,3713.01 
  2129.58,3722.85 2130.46,3729.77 2131.35,3733.71 2132.23,3734.62 2133.12,3732.5 2134,3727.36 2134.89,3719.26 2135.77,3708.27 2136.66,3694.51 2137.54,3678.1 
  2138.43,3659.22 2139.31,3638.05 2140.2,3614.8 2141.08,3589.71 2141.97,3563.01 2142.85,3534.98 2143.74,3505.91 2144.62,3476.06 2145.51,3445.75 2146.39,3415.27 
  2147.28,3384.94 2148.16,3355.04 2149.05,3325.88 2149.93,3297.75 2150.82,3270.92 2151.7,3245.67 2152.59,3222.24 2153.47,3200.88 2154.36,3181.78 2155.24,3165.14 
  2156.13,3151.13 2157.01,3139.88 2157.9,3131.5 2158.78,3126.08 2159.67,3123.67 2160.55,3124.3 2161.44,3127.94 2162.32,3134.57 2163.21,3144.13 2164.09,3156.5 
  2164.98,3171.57 2165.86,3189.18 2166.75,3209.17 2167.63,3231.31 2168.52,3255.4 2169.4,3281.19 2170.29,3308.43 2171.17,3336.83 2172.06,3366.11 2172.94,3395.98 
  2173.83,3426.14 2174.71,3456.29 2175.6,3486.11 2176.48,3515.32 2177.37,3543.62 2178.25,3570.72 2179.14,3596.35 2180.02,3620.26 2180.91,3642.2 2181.79,3661.96 
  2182.68,3679.33 2183.56,3694.13 2184.45,3706.22 2185.33,3715.48 2186.22,3721.81 2187.1,3725.15 2187.99,3725.45 2188.87,3722.73 2189.76,3716.99 2190.64,3708.3 
  2191.53,3696.74 2192.41,3682.43 2193.3,3665.5 2194.18,3646.12 2195.07,3624.49 2195.95,3600.82 2196.84,3575.34 2197.72,3548.31 2198.61,3519.99 2199.49,3490.67 
  2200.38,3460.63 2201.26,3430.17 2202.15,3399.61 2203.03,3369.22 2203.92,3339.34 2204.8,3310.23 2205.69,3282.2 2206.57,3255.53 2207.46,3230.47 2208.34,3207.28 
  2209.23,3186.19 2210.11,3167.4 2211,3151.09 2211.88,3137.44 2212.77,3126.57 2213.65,3118.59 2214.54,3113.58 2215.42,3111.58 2216.31,3112.62 2217.19,3116.68 
  2218.08,3123.71 2218.96,3133.65 2219.85,3146.39 2220.73,3161.8 2221.62,3179.73 2222.5,3200 2223.39,3222.39 2224.27,3246.69 2225.16,3272.65 2226.04,3300 
  2226.93,3328.48 2227.81,3357.78 2228.7,3387.63 2229.59,3417.71 2230.47,3447.73 2231.36,3477.38 2232.24,3506.36 2233.13,3534.38 2234.01,3561.16 2234.9,3586.42 
  2235.78,3609.92 2236.67,3631.41 2237.55,3650.68 2238.44,3667.54 2239.32,3681.8 2240.21,3693.33 2241.09,3702.01 2241.98,3707.74 2242.86,3710.47 2243.75,3710.17 
  2244.63,3706.84 2245.52,3700.51 2246.4,3691.23 2247.29,3679.11 2248.17,3664.25 2249.06,3646.8 2249.94,3626.94 2250.83,3604.85 2251.71,3580.76 2252.6,3554.91 
  2253.48,3527.55 2254.37,3498.94 2255.25,3469.38 2256.14,3439.16 2257.02,3408.57 2257.91,3377.91 2258.79,3347.5 2259.68,3317.63 2260.56,3288.59 2261.45,3260.67 
  2262.33,3234.16 2263.22,3209.3 2264.1,3186.35 2264.99,3165.54 2265.87,3147.06 2266.76,3131.09 2267.64,3117.8 2268.53,3107.32 2269.41,3099.74 2270.3,3095.14 
  2271.18,3093.55 2272.07,3095 2272.95,3099.47 2273.84,3106.9 2274.72,3117.22 2275.61,3130.33 2276.49,3146.08 2277.38,3164.32 2278.26,3184.87 2279.15,3207.5 
  2280.03,3232 2280.92,3258.12 2281.8,3285.58 2282.69,3314.12 2283.57,3343.44 2284.46,3373.25 2285.34,3403.25 2286.23,3433.13 2287.11,3462.59 2288,3491.34 
  2288.88,3519.07 2289.77,3545.52 2290.65,3570.41 2291.54,3593.49 2292.42,3614.53 2293.31,3633.31 2294.19,3649.65 2295.08,3663.36 2295.96,3674.33 2296.85,3682.42 
  2297.73,3687.56 2298.62,3689.68 2299.5,3688.78 2300.39,3684.84 2301.27,3677.91 2302.16,3668.06 2303.04,3655.37 2303.93,3639.97 2304.81,3622.01 2305.7,3601.66 
  2306.58,3579.13 2307.47,3554.63 2308.35,3528.41 2309.24,3500.72 2310.12,3471.84 2311.01,3442.05 2311.89,3411.65 2312.78,3380.93 2313.66,3350.2 2314.55,3319.76 
  2315.43,3289.91 2316.32,3260.95 2317.2,3233.16 2318.09,3206.81 2318.97,3182.16 2319.86,3159.46 2320.74,3138.92 2321.63,3120.76 2322.51,3105.14 2323.4,3092.22 
  2324.28,3082.12 2325.17,3074.94 2326.05,3070.75 2326.94,3069.58 2327.82,3071.45 2328.71,3076.32 2329.59,3084.15 2330.48,3094.85 2331.36,3108.32 2332.25,3124.4 
  2333.13,3142.95 2334.02,3163.76 2334.9,3186.64 2335.79,3211.33 2336.67,3237.59 2337.56,3265.17 2338.44,3293.76 2339.33,3323.09 2340.21,3352.86 2341.1,3382.76 
  2341.98,3412.5 2342.87,3441.76 2343.76,3470.26 2344.64,3497.71 2345.53,3523.81 2346.41,3548.32 2347.3,3570.98 2348.18,3591.56 2349.07,3609.85 2349.95,3625.66 
  2350.84,3638.82 2351.72,3649.21 2352.61,3656.72 2353.49,3661.26 2354.38,3662.78 2355.26,3661.27 2356.15,3656.73 2357.03,3649.21 2357.92,3638.78 2358.8,3625.53 
  2359.69,3609.59 2360.57,3591.12 2361.46,3570.29 2362.34,3547.32 2363.23,3522.42 2364.11,3495.84 2365,3467.84 2365.88,3438.69 2366.77,3408.68 2367.65,3378.11 
  2368.54,3347.27 2369.42,3316.47 2370.31,3286.02 2371.19,3256.2 2372.08,3227.32 2372.96,3199.65 2373.85,3173.48 2374.73,3149.05 2375.62,3126.6 2376.5,3106.35 
  2377.39,3088.51 2378.27,3073.24 2379.16,3060.69 2380.04,3050.98 2380.93,3044.2 2381.81,3040.42 2382.7,3039.67 2383.58,3041.95 2384.47,3047.23 2385.35,3055.45 
  2386.24,3066.53 2387.12,3080.35 2388.01,3096.77 2388.89,3115.62 2389.78,3136.7 2390.66,3159.79 2391.55,3184.67 2392.43,3211.08 2393.32,3238.75 2394.2,3267.4 
  2395.09,3296.72 2395.97,3326.44 2396.86,3356.24 2397.74,3385.82 2398.63,3414.89 2399.51,3443.13 2400.4,3470.27 2401.28,3496.04 2402.17,3520.16 2403.05,3542.39 
  2403.94,3562.5 2404.82,3580.28 2405.71,3595.56 2406.59,3608.18 2407.48,3618 2408.36,3624.91 2409.25,3628.85 2410.13,3629.77 2411.02,3627.65 2411.9,3622.51 
  2412.79,3614.4 2413.67,3603.39 2414.56,3589.58 2415.44,3573.11 2416.33,3554.13 2417.21,3532.84 2418.1,3509.43 2418.98,3484.13 2419.87,3457.2 2420.75,3428.89 
  2421.64,3399.48 2422.52,3369.26 2423.41,3338.53 2424.29,3307.58 2425.18,3276.73 2426.06,3246.26 2426.95,3216.49 2427.83,3187.69 2428.72,3160.17 2429.6,3134.17 
  2430.49,3109.96 2431.37,3087.77 2432.26,3067.82 2433.14,3050.3 2434.03,3035.39 2434.91,3023.21 2435.8,3013.89 2436.68,3007.52 2437.57,3004.15 2438.45,3003.82 
  2439.34,3006.51 2440.22,3012.19 2441.11,3020.8 2441.99,3032.26 2442.88,3046.43 2443.76,3063.18 2444.65,3082.32 2445.53,3103.66 2446.42,3126.98 2447.3,3152.04 
  2448.19,3178.58 2449.07,3206.34 2449.96,3235.02 2450.84,3264.34 2451.73,3294 2452.61,3323.69 2453.5,3353.11 2454.38,3381.96 2455.27,3409.94 2456.16,3436.78 
  2457.04,3462.19 2457.93,3485.91 2458.81,3507.7 2459.7,3527.34 2460.58,3544.62 2461.47,3559.37 2462.35,3571.43 2463.24,3580.67 2464.12,3586.99 2465.01,3590.33 
  2465.89,3590.64 2466.78,3587.92 2467.66,3582.18 2468.55,3573.48 2469.43,3561.9 2470.32,3547.53 2471.2,3530.54 2472.09,3511.06 2472.97,3489.3 2473.86,3465.46 
  2474.74,3439.78 2475.63,3412.5 2476.51,3383.89 2477.4,3354.23 2478.28,3323.81 2479.17,3292.92 2480.05,3261.87 2480.94,3230.96 2481.82,3200.5 2482.71,3170.77 
  2483.59,3142.08 2484.48,3114.69 2485.36,3088.89 2486.25,3064.9 2487.13,3042.98 2488.02,3023.33 2488.9,3006.15 2489.79,2991.59 2490.67,2979.79 2491.56,2970.87 
  2492.44,2964.9 2493.33,2961.94 2494.21,2962.02 2495.1,2965.12 2495.98,2971.21 2496.87,2980.21 2497.75,2992.04 2498.64,3006.56 2499.52,3023.62 2500.41,3043.05 
  2501.29,3064.65 2502.18,3088.18 2503.06,3113.41 2503.95,3140.09 2504.83,3167.92 2505.72,3196.64 2506.6,3225.94 2507.49,3255.53 2508.37,3285.1 2509.26,3314.35 
  2510.14,3342.98 2511.03,3370.7 2511.91,3397.21 2512.8,3422.26 2513.68,3445.58 2514.57,3466.93 2515.45,3486.09 2516.34,3502.86 2517.22,3517.07 2518.11,3528.57 
  2518.99,3537.23 2519.88,3542.96 2520.76,3545.7 2521.65,3545.4 2522.53,3542.08 2523.42,3535.74 2524.3,3526.45 2525.19,3514.3 2526.07,3499.39 2526.96,3481.86 
  2527.84,3461.89 2528.73,3439.67 2529.61,3415.41 2530.5,3389.35 2531.38,3361.73 2532.27,3332.83 2533.15,3302.92 2534.04,3272.31 2534.92,3241.28 2535.81,3210.14 
  2536.69,3179.19 2537.58,3148.73 2538.46,3119.06 2539.35,3090.47 2540.23,3063.24 2541.12,3037.63 2542,3013.88 2542.89,2992.23 2543.77,2972.89 2544.66,2956.04 
  2545.54,2941.84 2546.43,2930.42 2547.31,2921.89 2548.2,2916.34 2549.08,2913.79 2549.97,2914.29 2550.85,2917.8 2551.74,2924.28 2552.62,2933.68 2553.51,2945.87 
  2554.39,2960.73 2555.28,2978.11 2556.16,2997.82 2557.05,3019.66 2557.93,3043.41 2558.82,3068.8 2559.7,3095.6 2560.59,3123.51 2561.47,3152.25 2562.36,3181.52 
  2563.24,3211.03 2564.13,3240.48 2565.01,3269.55 2565.9,3297.95 2566.78,3325.39 2567.67,3351.58 2568.55,3376.26 2569.44,3399.17 2570.33,3420.07 2571.21,3438.75 
  2572.1,3455.01 2572.98,3468.67 2573.87,3479.6 2574.75,3487.68 2575.64,3492.82 2576.52,3494.95 2577.41,3494.05 2578.29,3490.12 2579.18,3483.19 2580.06,3473.32 
  2580.95,3460.59 2581.83,3445.14 2582.72,3427.1 2583.6,3406.64 2584.49,3383.96 2585.37,3359.29 2586.26,3332.85 2587.14,3304.9 2588.03,3275.71 2588.91,3245.57 
  2589.8,3214.77 2590.68,3183.61 2591.57,3152.38 2592.45,3121.4 2593.34,3090.96 2594.22,3061.36 2595.11,3032.88 2595.99,3005.81 2596.88,2980.39 2597.76,2956.89 
  2598.65,2935.52 2599.53,2916.49 2600.42,2899.97 2601.3,2886.14 2602.19,2875.11 2603.07,2866.98 2603.96,2861.83 2604.84,2859.7 2605.73,2860.61 2606.61,2864.53 
  2607.5,2871.41 2608.38,2881.19 2609.27,2893.75 2610.15,2908.95 2611.04,2926.64 2611.92,2946.63 2612.81,2968.71 2613.69,2992.65 2614.58,3018.21 2615.46,3045.11 
  2616.35,3073.09 2617.23,3101.84 2618.12,3131.08 2619,3160.51 2619.89,3189.81 2620.77,3218.7 2621.66,3246.86 2622.54,3274.02 2623.43,3299.88 2624.31,3324.18 
  2625.2,3346.67 2626.08,3367.12 2626.97,3385.31 2627.85,3401.05 2628.74,3414.17 2629.62,3424.53 2630.51,3432.03 2631.39,3436.56 2632.28,3438.09 2633.16,3436.59 
  2634.05,3432.05 2634.93,3424.53 2635.82,3414.07 2636.7,3400.79 2637.59,3384.79 2638.47,3366.23 2639.36,3345.29 2640.24,3322.17 2641.13,3297.08 2642.01,3270.28 
  2642.9,3242.01 2643.78,3212.54 2644.67,3182.18 2645.55,3151.2 2646.44,3119.91 2647.32,3088.6 2648.21,3057.6 2649.09,3027.18 2649.98,2997.65 2650.86,2969.3 
  2651.75,2942.39 2652.63,2917.19 2653.52,2893.93 2654.4,2872.85 2655.29,2854.13 2656.17,2837.96 2657.06,2824.49 2657.94,2813.85 2658.83,2806.12 2659.71,2801.38 
  2660.6,2799.67 2661.48,2800.99 2662.37,2805.32 2663.25,2812.6 2664.14,2822.76 2665.02,2835.67 2665.91,2851.21 2666.79,2869.2 2667.68,2889.47 2668.56,2911.78 
  2669.45,2935.92 2670.33,2961.62 2671.22,2988.63 2672.1,3016.66 2672.99,3045.43 2673.87,3074.62 2674.76,3103.95 2675.64,3133.11 2676.53,3161.8 2677.41,3189.72 
  2678.3,3216.58 2679.18,3242.1 2680.07,3266.03 2680.95,3288.09 2681.84,3308.08 2682.72,3325.77 2683.61,3340.99 2684.5,3353.56 2685.38,3363.35 2686.27,3370.26 
  2687.15,3374.2 2688.04,3375.12 2688.92,3373.01 2689.81,3367.88 2690.69,3359.76 2691.58,3348.72 2692.46,3334.87 2693.35,3318.34 2694.23,3299.27 2695.12,3277.86 
  2696,3254.29 2696.89,3228.81 2697.77,3201.64 2698.66,3173.05 2699.54,3143.32 2700.43,3112.74 2701.31,3081.59 2702.2,3050.18 2703.08,3018.81 2703.97,2987.78 
  2704.85,2957.4 2705.74,2927.96 2706.62,2899.73 2707.51,2873 2708.39,2848.01 2709.28,2825.01 2710.16,2804.21 2711.05,2785.82 2711.93,2770 2712.82,2756.9 
  2713.7,2746.65 2714.59,2739.32 2715.47,2735 2716.36,2733.7 2717.24,2735.43 2718.13,2740.16 2719.01,2747.84 2719.9,2758.37 2720.78,2771.64 2721.67,2787.51 
  2722.55,2805.81 2723.44,2826.33 2724.32,2848.88 2725.21,2873.2 2726.09,2899.05 2726.98,2926.15 2727.86,2954.23 2728.75,2982.99 2729.63,3012.14 2730.52,3041.37 
  2731.4,3070.37 2732.29,3098.86 2733.17,3126.52 2734.06,3153.08 2734.94,3178.26 2735.83,3201.79 2736.71,3223.43 2737.6,3242.95 2738.48,3260.14 2739.37,3274.83 
  2740.25,3286.84 2741.14,3296.06 2742.02,3302.38 2742.91,3305.72 2743.79,3306.04 2744.68,3303.32 2745.56,3297.59 2746.45,3288.87 2747.33,3277.26 2748.22,3262.86 
  2749.1,3245.79 2749.99,3226.22 2750.87,3204.34 2751.76,3180.34 2752.64,3154.45 2753.53,3126.93 2754.41,3098.04 2755.3,3068.05 2756.18,3037.25 2757.07,3005.94 
  2757.95,2974.42 2758.84,2943 2759.72,2911.96 2760.61,2881.62 2761.49,2852.27 2762.38,2824.18 2763.26,2797.63 2764.15,2772.86 2765.03,2750.12 2765.92,2729.62 
  2766.8,2711.55 2767.69,2696.09 2768.57,2683.36 2769.46,2673.5 2770.34,2666.58 2771.23,2662.67 2772.11,2661.78 2773,2663.93 2773.88,2669.07 2774.77,2677.13 
  2775.65,2688.04 2776.54,2701.66 2777.42,2717.86 2778.31,2736.45 2779.19,2757.23 2780.08,2780 2780.96,2804.5 2781.85,2830.48 2782.73,2857.68 2783.62,2885.8 
  2784.5,2914.55 2785.39,2943.63 2786.27,2972.75 2787.16,3001.59 2788.04,3029.86 2788.93,3057.27 2789.81,3083.52 2790.7,3108.34 2791.58,3131.47 2792.47,3152.68 
  2793.35,3171.72 2794.24,3188.41 2795.12,3202.56 2796.01,3214.02 2796.9,3222.67 2797.78,3228.39 2798.67,3231.13 2799.55,3230.84 2800.44,3227.52 2801.32,3221.19 
  2802.21,3211.88 2803.09,3199.7 2803.98,3184.74 2804.86,3167.15 2805.75,3147.08 2806.63,3124.73 2807.52,3100.3 2808.4,3074.03 2809.29,3046.16 2810.17,3016.97 
  2811.06,2986.73 2811.94,2955.73 2812.83,2924.27 2813.71,2892.65 2814.6,2861.17 2815.48,2830.14 2816.37,2799.85 2817.25,2770.59 2818.14,2742.65 2819.02,2716.28 
  2819.91,2691.75 2820.79,2669.27 2821.68,2649.07 2822.56,2631.33 2823.45,2616.22 2824.33,2603.88 2825.22,2594.41 2826.1,2587.9 2826.99,2584.4 2827.87,2583.93 
  2828.76,2586.48 2829.64,2592.02 2830.53,2600.48 2831.41,2611.76 2832.3,2625.73 2833.18,2642.24 2834.07,2661.12 2834.95,2682.16 2835.84,2705.14 2836.72,2729.81 
  2837.61,2755.92 2838.49,2783.2 2839.38,2811.35 2840.26,2840.08 2841.15,2869.1 2842.03,2898.1 2842.92,2926.77 2843.8,2954.82 2844.69,2981.95 2845.57,3007.89 
  2846.46,3032.35 2847.34,3055.08 2848.23,3075.84 2849.11,3094.41 2850,3110.58 2850.88,3124.2 2851.77,3135.1 2852.65,3143.16 2853.54,3148.29 2854.42,3150.43 
  2855.31,3149.53 2856.19,3145.61 2857.08,3138.67 2857.96,3128.79 2858.85,3116.03 2859.73,3100.53 2860.62,3082.41 2861.5,3061.85 2862.39,3039.03 2863.27,3014.18 
  2864.16,2987.53 2865.04,2959.33 2865.93,2929.84 2866.81,2899.36 2867.7,2868.17 2868.58,2836.56 2869.47,2804.85 2870.35,2773.33 2871.24,2742.3 2872.12,2712.07 
  2873.01,2682.92 2873.89,2655.13 2874.78,2628.96 2875.66,2604.66 2876.55,2582.46 2877.43,2562.56 2878.32,2545.16 2879.2,2530.41 2880.09,2518.45 2880.97,2509.38 
  2881.86,2503.27 2882.74,2500.19 2883.63,2500.13 2884.51,2503.1 2885.4,2509.04 2886.28,2517.88 2887.17,2529.53 2888.05,2543.84 2888.94,2560.67 2889.82,2579.83 
  2890.71,2601.12 2891.59,2624.3 2892.48,2649.14 2893.36,2675.37 2894.25,2702.72 2895.13,2730.89 2896.02,2759.6 2896.9,2788.54 2897.79,2817.41 2898.67,2845.9 
  2899.56,2873.72 2900.44,2900.58 2901.33,2926.19 2902.21,2950.28 2903.1,2972.6 2903.98,2992.91 2904.87,3010.99 2905.75,3026.66 2906.64,3039.73 2907.52,3050.06 
  2908.41,3057.54 2909.29,3062.08 2910.18,3063.61 2911.07,3062.11 2911.95,3057.58 2912.84,3050.05 2913.72,3039.58 2914.61,3026.26 2915.49,3010.21 2916.38,2991.57 
  2917.26,2970.52 2918.15,2947.25 2919.03,2921.99 2919.92,2894.96 2920.8,2866.43 2921.69,2836.66 2922.57,2805.94 2923.46,2774.56 2924.34,2742.82 2925.23,2711.03 
  2926.11,2679.47 2927,2648.47 2927.88,2618.3 2928.77,2589.27 2929.65,2561.63 2930.54,2535.66 2931.42,2511.61 2932.31,2489.68 2933.19,2470.1 2934.08,2453.04 
  2934.96,2438.65 2935.85,2427.07 2936.73,2418.4 2937.62,2412.71 2938.5,2410.03 2939.39,2410.39 2940.27,2413.77 2941.16,2420.11 2942.04,2429.34 2942.93,2441.34 
  2943.81,2456 2944.7,2473.14 2945.58,2492.57 2946.47,2514.1 2947.35,2537.48 2948.24,2562.48 2949.12,2588.82 2950.01,2616.23 2950.89,2644.42 2951.78,2673.09 
  2952.66,2701.95 2953.55,2730.68 2954.43,2758.98 2955.32,2786.57 2956.2,2813.14 2957.09,2838.42 2957.97,2862.13 2958.86,2884.03 2959.74,2903.89 2960.63,2921.48 
  2961.51,2936.63 2962.4,2949.15 2963.28,2958.92 2964.17,2965.81 2965.05,2969.75 2965.94,2970.68 2966.82,2968.58 2967.71,2963.45 2968.59,2955.32 2969.48,2944.27 
  2970.36,2930.38 2971.25,2913.79 2972.13,2894.64 2973.02,2873.11 2973.9,2849.39 2974.79,2823.72 2975.67,2796.32 2976.56,2767.47 2977.44,2737.43 2978.33,2706.48 
  2979.21,2674.92 2980.1,2643.06 2980.98,2611.18 2981.87,2579.61 2982.75,2548.63 2983.64,2518.54 2984.52,2489.62 2985.41,2462.16 2986.29,2436.4 2987.18,2412.59 
  2988.06,2390.95 2988.95,2371.68 2989.83,2354.96 2990.72,2340.95 2991.6,2329.75 2992.49,2321.48 2993.37,2316.2 2994.26,2313.94 2995.14,2314.71 2996.03,2318.5 
  2996.91,2325.23 2997.8,2334.84 2998.68,2347.21 2999.57,2362.2 3000.45,2379.64 3001.34,2399.35 3002.22,2421.11 3003.11,2444.69 3003.99,2469.83 3004.88,2496.28 
  3005.76,2523.75 3006.65,2551.94 3007.53,2580.57 3008.42,2609.33 3009.3,2637.91 3010.19,2666.02 3011.07,2693.36 3011.96,2719.64 3012.84,2744.57 3013.73,2767.91 
  3014.61,2789.39 3015.5,2808.78 3016.38,2825.88 3017.27,2840.5 3018.15,2852.47 3019.04,2861.67 3019.92,2867.98 3020.81,2871.32 3021.69,2871.64 3022.58,2868.93 
  3023.46,2863.2 3024.35,2854.48 3025.24,2842.85 3026.12,2828.4 3027.01,2811.27 3027.89,2791.61 3028.78,2769.6 3029.66,2745.45 3030.55,2719.37 3031.43,2691.62 
  3032.32,2662.45 3033.2,2632.14 3034.09,2600.97 3034.97,2569.25 3035.86,2537.26 3036.74,2505.33 3037.63,2473.73 3038.51,2442.79 3039.4,2412.78 3040.28,2383.99 
  3041.17,2356.7 3042.05,2331.16 3042.94,2307.6 3043.82,2286.25 3044.71,2267.31 3045.59,2250.94 3046.48,2237.29 3047.36,2226.49 3048.25,2218.62 3049.13,2213.75 
  3050.02,2211.91 3050.9,2213.09 3051.79,2217.28 3052.67,2224.41 3053.56,2234.4 3054.44,2247.12 3055.33,2262.44 3056.21,2280.18 3057.1,2300.15 3057.98,2322.14 
  3058.87,2345.91 3059.75,2371.19 3060.64,2397.74 3061.52,2425.25 3062.41,2453.44 3063.29,2482.02 3064.18,2510.68 3065.06,2539.11 3065.95,2567.01 3066.83,2594.1 
  3067.72,2620.07 3068.6,2644.66 3069.49,2667.6 3070.37,2688.65 3071.26,2707.58 3072.14,2724.18 3073.03,2738.27 3073.91,2749.69 3074.8,2758.31 3075.68,2764.03 
  3076.57,2766.77 3077.45,2766.49 3078.34,2763.17 3079.22,2756.84 3080.11,2747.53 3080.99,2735.32 3081.88,2720.32 3082.76,2702.66 3083.65,2682.49 3084.53,2660.01 
  3085.42,2635.42 3086.3,2608.95 3087.19,2580.85 3088.07,2551.37 3088.96,2520.8 3089.84,2489.42 3090.73,2457.54 3091.61,2425.45 3092.5,2393.45 3093.38,2361.85 
  3094.27,2330.94 3095.15,2301.03 3096.04,2272.38 3096.92,2245.27 3097.81,2219.95 3098.69,2196.65 3099.58,2175.6 3100.46,2156.98 3101.35,2140.96 3102.23,2127.69 
  3103.12,2117.28 3104,2109.82 3104.89,2105.36 3105.77,2103.93 3106.66,2105.53 3107.54,2110.12 3108.43,2117.64 3109.31,2128 3110.2,2141.08 3111.08,2156.72 
  3111.97,2174.76 3112.85,2194.99 3113.74,2217.2 3114.62,2241.14 3115.51,2266.56 3116.39,2293.19 3117.28,2320.75 3118.16,2348.93 3119.05,2377.45 3119.93,2405.99 
  3120.82,2434.26 3121.7,2461.95 3122.59,2488.77 3123.47,2514.44 3124.36,2538.67 3125.24,2561.22 3126.13,2581.83 3127.01,2600.29 3127.9,2616.38 3128.78,2629.94 
  3129.67,2640.8 3130.55,2648.84 3131.44,2653.97 3132.32,2656.11 3133.21,2655.22 3134.09,2651.3 3134.98,2644.37 3135.86,2634.47 3136.75,2621.69 3137.64,2606.13 
  3138.52,2587.94 3139.41,2567.28 3140.29,2544.34 3141.18,2519.32 3142.06,2492.46 3142.95,2464.01 3143.83,2434.23 3144.72,2403.41 3145.6,2371.83 3146.49,2339.8 
  3147.37,2307.6 3148.26,2275.56 3149.14,2243.96 3150.03,2213.1 3150.91,2183.28 3151.8,2154.78 3152.68,2127.86 3153.57,2102.77 3154.45,2079.74 3155.34,2058.99 
  3156.22,2040.7 3157.11,2025.04 3157.99,2012.15 3158.88,2002.13 3159.76,1995.08 3160.65,1991.03 3161.53,1990.02 3162.42,1992.03 3163.3,1997.02 3164.19,2004.93 
  3165.07,2015.66 3165.96,2029.08 3166.84,2045.04 3167.73,2063.37 3168.61,2083.85 3169.5,2106.28 3170.38,2130.39 3171.27,2155.94 3172.15,2182.65 3173.04,2210.24 
  3173.92,2238.4 3174.81,2266.85 3175.69,2295.27 3176.58,2323.37 3177.46,2350.84 3178.35,2377.39 3179.23,2402.74 3180.12,2426.61 3181,2448.75 3181.89,2468.92 
  3182.77,2486.9 3183.66,2502.48 3184.54,2515.5 3185.43,2525.8 3186.31,2533.27 3187.2,2537.8 3188.08,2539.34 3188.97,2537.85 3189.85,2533.32 3190.74,2525.79 
  3191.62,2515.3 3192.51,2501.95 3193.39,2485.85 3194.28,2467.13 3195.16,2445.98 3196.05,2422.57 3196.93,2397.13 3197.82,2369.89 3198.7,2341.11 3199.59,2311.04 
  3200.47,2279.97 3201.36,2248.2 3202.24,2216.02 3203.13,2183.74 3204.01,2151.65 3204.9,2120.06 3205.78,2089.26 3206.67,2059.55 3207.55,2031.2 3208.44,2004.47 
  3209.32,1979.62 3210.21,1956.86 3211.09,1936.42 3211.98,1918.47 3212.86,1903.17 3213.75,1890.66 3214.63,1881.04 3215.52,1874.39 3216.4,1870.76 3217.29,1870.16 
  3218.17,1872.58 3219.06,1877.97 3219.94,1886.27 3220.83,1897.37 3221.71,1911.13 3222.6,1927.41 3223.48,1946.02 3224.37,1966.75 3225.25,1989.38 3226.14,2013.66 
  3227.02,2039.33 3227.91,2066.11 3228.79,2093.72 3229.68,2121.85 3230.56,2150.22 3231.45,2178.51 3232.33,2206.43 3233.22,2233.67 3234.1,2259.95 3234.99,2284.97 
  3235.87,2308.48 3236.76,2330.21 3237.64,2349.93 3238.53,2367.42 3239.41,2382.49 3240.3,2394.96 3241.18,2404.7 3242.07,2411.58 3242.95,2415.52 3243.84,2416.45 
  3244.72,2414.35 3245.61,2409.22 3246.49,2401.09 3247.38,2390.02 3248.26,2376.11 3249.15,2359.46 3250.03,2340.23 3250.92,2318.58 3251.81,2294.73 3252.69,2268.87 
  3253.58,2241.26 3254.46,2212.14 3255.35,2181.79 3256.23,2150.49 3257.12,2118.54 3258,2086.22 3258.89,2053.85 3259.77,2021.73 3260.66,1990.16 3261.54,1959.43 
  3262.43,1929.83 3263.31,1901.64 3264.2,1875.12 3265.08,1850.5 3265.97,1828.03 3266.85,1807.89 3267.74,1790.28 3268.62,1775.35 3269.51,1763.22 3270.39,1754 
  3271.28,1747.76 3272.16,1744.55 3273.05,1744.36 3273.93,1747.19 3274.82,1752.98 3275.7,1761.66 3276.59,1773.12 3277.47,1787.23 3278.36,1803.81 3279.24,1822.7 
  3280.13,1843.67 3281.01,1866.5 3281.9,1890.93 3282.78,1916.71 3283.67,1943.56 3284.55,1971.18 3285.44,1999.29 3286.32,2027.57 3287.21,2055.72 3288.09,2083.45 
  3288.98,2110.45 3289.86,2136.44 3290.75,2161.13 3291.63,2184.26 3292.52,2205.58 3293.4,2224.84 3294.29,2241.84 3295.17,2256.39 3296.06,2268.32 3296.94,2277.49 
  3297.83,2283.78 3298.71,2287.12 3299.6,2287.45 3300.48,2284.75 3301.37,2279.02 3302.25,2270.29 3303.14,2258.64 3304.02,2244.16 3304.91,2226.97 3305.79,2207.23 
  3306.68,2185.1 3307.56,2160.8 3308.45,2134.53 3309.33,2106.55 3310.22,2077.11 3311.1,2046.49 3311.99,2014.96 3312.87,1982.83 3313.76,1950.39 3314.64,1917.95 
  3315.53,1885.8 3316.41,1854.25 3317.3,1823.6 3318.18,1794.13 3319.07,1766.1 3319.95,1739.78 3320.84,1715.42 3321.72,1693.23 3322.61,1673.41 3323.49,1656.15 
  3324.38,1641.58 3325.26,1629.84 3326.15,1621.03 3327.03,1615.2 3327.92,1612.39 3328.8,1612.62 3329.69,1615.85 3330.57,1622.04 3331.46,1631.1 3332.34,1642.92 
  3333.23,1657.36 3334.11,1674.25 3335,1693.41 3335.88,1714.61 3336.77,1737.64 3337.65,1762.22 3338.54,1788.11 3339.42,1815.01 3340.31,1842.64 3341.19,1870.69 
  3342.08,1898.88 3342.96,1926.89 3343.85,1954.42 3344.73,1981.18 3345.62,2006.87 3346.5,2031.22 3347.39,2053.97 3348.27,2074.86 3349.16,2093.66 3350.04,2110.17 
  3350.93,2124.19 3351.81,2135.57 3352.7,2144.17 3353.58,2149.88 3354.47,2152.62 3355.35,2152.34 3356.24,2149.03 3357.12,2142.7 3358.01,2133.38 3358.89,2121.15 
  3359.78,2106.11 3360.66,2088.38 3361.55,2068.13 3362.43,2045.53 3363.32,2020.78 3364.2,1994.12 3365.09,1965.78 3365.98,1936.03 3366.86,1905.13 3367.75,1873.39 
  3368.63,1841.09 3369.52,1808.53 3370.4,1776.02 3371.29,1743.86 3372.17,1712.35 3373.06,1681.78 3373.94,1652.43 3374.83,1624.58 3375.71,1598.48 3376.6,1574.37 
  3377.48,1552.47 3378.37,1532.98 3379.25,1516.06 3380.14,1501.87 3381.02,1490.52 3381.91,1482.1 3382.79,1476.69 3383.68,1474.3 3384.56,1474.94 3385.45,1478.58 
  3386.33,1485.16 3387.22,1494.6 3388.1,1506.77 3388.99,1521.54 3389.87,1538.73 3390.76,1558.15 3391.64,1579.58 3392.53,1602.79 3393.41,1627.52 3394.3,1653.5 
  3395.18,1680.45 3396.07,1708.08 3396.95,1736.08 3397.84,1764.16 3398.72,1792.02 3399.61,1819.34 3400.49,1845.85 3401.38,1871.24 3402.26,1895.24 3403.15,1917.6 
  3404.03,1938.06 3404.92,1956.39 3405.8,1972.4 3406.69,1985.89 3407.57,1996.71 3408.46,2004.74 3409.34,2009.86 3410.23,2012 3411.11,2011.12 3412,2007.2 
  3412.88,2000.27 3413.77,1990.36 3414.65,1977.56 3415.54,1961.96 3416.42,1943.7 3417.31,1922.94 3418.19,1899.87 3419.08,1874.69 3419.96,1847.63 3420.85,1818.94 
  3421.73,1788.88 3422.62,1757.73 3423.5,1725.77 3424.39,1693.31 3425.27,1660.65 3426.16,1628.08 3427.04,1595.91 3427.93,1564.44 3428.81,1533.96 3429.7,1504.75 
  3430.58,1477.09 3431.47,1451.21 3432.35,1427.36 3433.24,1405.76 3434.12,1386.59 3435.01,1370.02 3435.89,1356.21 3436.78,1345.25 3437.66,1337.24 3438.55,1332.24 
  3439.43,1330.26 3440.32,1331.31 3441.2,1335.36 3442.09,1342.33 3442.97,1352.15 3443.86,1364.67 3444.74,1379.76 3445.63,1397.25 3446.51,1416.93 3447.4,1438.58 
  3448.28,1461.96 3449.17,1486.83 3450.05,1512.89 3450.94,1539.88 3451.82,1567.5 3452.71,1595.44 3453.59,1623.41 3454.48,1651.1 3455.36,1678.22 3456.25,1704.46 
  3457.13,1729.54 3458.02,1753.19 3458.9,1775.15 3459.79,1795.17 3460.67,1813.03 3461.56,1828.53 3462.44,1841.49 3463.33,1851.75 3464.21,1859.2 3465.1,1863.73 
  3465.98,1865.27 3466.87,1863.78 3467.75,1859.26 3468.64,1851.73 3469.52,1841.23 3470.41,1827.85 3471.29,1811.7 3472.18,1792.92 3473.06,1771.66 3473.95,1748.12 
  3474.83,1722.52 3475.72,1695.07 3476.6,1666.03 3477.49,1635.68 3478.38,1604.27 3479.26,1572.12 3480.15,1539.51 3481.03,1506.74 3481.92,1474.12 3482.8,1441.96 
  3483.69,1410.54 3484.57,1380.16 3485.46,1351.09 3486.34,1323.61 3487.23,1297.97 3488.11,1274.39 3489,1253.08 3489.88,1234.25 3490.77,1218.04 3491.65,1204.6 
  3492.54,1194.04 3493.42,1186.44 3494.31,1181.84 3495.19,1180.28 3496.08,1181.75 3496.96,1186.2 3497.85,1193.56 3498.73,1203.74 3499.62,1216.61 3500.5,1232.03 
  3501.39,1249.8 3502.27,1269.73 3503.16,1291.59 3504.04,1315.15 3504.93,1340.14 3505.81,1366.29 3506.7,1393.31 3507.58,1420.9 3508.47,1448.78 3509.35,1476.63 
  3510.24,1504.15 3511.12,1531.04 3512.01,1557.01 3512.89,1581.77 3513.78,1605.06 3514.66,1626.61 3515.55,1646.19 3516.43,1663.57 3517.32,1678.56 3518.2,1690.98 
  3519.09,1700.69 3519.97,1707.55 3520.86,1711.49 3521.74,1712.43 3522.63,1710.34 3523.51,1705.21 3524.4,1697.08 3525.28,1685.99 3526.17,1672.05 3527.05,1655.35 
  3527.94,1636.04 3528.82,1614.29 3529.71,1590.29 3530.59,1564.26 3531.48,1536.44 3532.36,1507.06 3533.25,1476.41 3534.13,1444.77 3535.02,1412.42 3535.9,1379.67 
  3536.79,1346.81 3537.67,1314.15 3538.56,1282 3539.44,1250.64 3540.33,1220.36 3541.21,1191.45 3542.1,1164.17 3542.98,1138.76 3543.87,1115.45 3544.75,1094.45 
  3545.64,1075.95 3546.52,1060.11 3547.41,1047.05 3548.29,1036.88 3549.18,1029.69 3550.06,1025.51 3550.95,1024.37 3551.83,1026.24 3552.72,1031.09 3553.6,1038.84 
  3554.49,1049.39 3555.37,1062.6 3556.26,1078.33 3557.14,1096.38 3558.03,1116.56 3558.91,1138.63 3559.8,1162.35 3560.68,1187.46 3561.57,1213.68 3562.45,1240.72 
  3563.34,1268.29 3564.22,1296.09 3565.11,1323.8 3565.99,1351.14 3566.88,1377.81 3567.76,1403.5 3568.65,1427.94 3569.53,1450.85 3570.42,1472 3571.3,1491.12 
  3572.19,1508.02 3573.07,1522.5 3573.96,1534.37 3574.84,1543.51 3575.73,1549.8 3576.61,1553.14 3577.5,1553.47 3578.38,1550.77 3579.27,1545.05 3580.15,1536.32 
  3581.04,1524.65 3581.92,1510.13 3582.81,1492.89 3583.69,1473.06 3584.58,1450.83 3585.46,1426.38 3586.35,1399.93 3587.23,1371.73 3588.12,1342.03 3589,1311.1 
  3589.89,1279.22 3590.77,1246.69 3591.66,1213.8 3592.55,1180.86 3593.43,1148.17 3594.32,1116.03 3595.2,1084.74 3596.09,1054.58 3596.97,1025.83 3597.86,998.747 
  3598.74,973.58 3599.63,950.552 3600.51,929.867 3601.4,911.707 3602.28,896.226 3603.17,883.552 3604.05,873.787 3604.94,867.002 3605.82,863.237 3606.71,862.506 
  3607.59,864.788 3608.48,870.035 3609.36,878.168 3610.25,889.08 3611.13,902.634 3612.02,918.67 3612.9,937.001 3613.79,957.418 3614.67,979.689 3615.56,1003.57 
  3616.44,1028.79 3617.33,1055.07 3618.21,1082.12 3619.1,1109.66 3619.98,1137.36 3620.87,1164.95 3621.75,1192.1 3622.64,1218.52 3623.52,1243.92 3624.41,1268.03 
  3625.29,1290.57 3626.18,1311.3 3627.06,1329.97 3627.95,1346.38 3628.83,1360.33 3629.72,1371.66 3630.6,1380.23 3631.49,1385.93 3632.37,1388.67 3633.26,1388.4 
  3634.14,1385.1 3635.03,1378.77 3635.91,1369.45 3636.8,1357.2 3637.68,1342.12 3638.57,1324.33 3639.45,1303.99 3640.34,1281.28 3641.22,1256.38 3642.11,1229.53 
  3642.99,1200.96 3643.88,1170.94 3644.76,1139.73 3645.65,1107.63 3646.53,1074.92 3647.42,1041.9 3648.3,1008.89 3649.19,976.175 3650.07,944.063 3650.96,912.846 
  3651.84,882.809 3652.73,854.226 3653.61,827.354 3654.5,802.436 3655.38,779.693 3656.27,759.325 3657.15,741.51 3658.04,726.397 3658.92,714.111 3659.81,704.747 
  3660.69,698.372 3661.58,695.023 3662.46,694.705 3663.35,697.394 3664.23,703.037 3665.12,711.551 3666,722.821 3666.89,736.71 3667.77,753.05 3668.66,771.652 
  3669.54,792.301 3670.43,814.765 3671.31,838.792 3672.2,864.114 3673.08,890.451 3673.97,917.513 3674.85,945.001 3675.74,972.613 3676.62,1000.05 3677.51,1027 
  3678.39,1053.18 3679.28,1078.29 3680.16,1102.06 3681.05,1124.21 3681.93,1144.51 3682.82,1162.72 3683.7,1178.63 3684.59,1192.06 3685.47,1202.84 3686.36,1210.84 
  3687.24,1215.95 3688.13,1218.1 3689.01,1217.22 3689.9,1213.31 3690.78,1206.38 3691.67,1196.46 3692.55,1183.64 3693.44,1168 3694.32,1149.68 3695.21,1128.83 
  3696.09,1105.64 3696.98,1080.3 3697.86,1053.05 3698.75,1024.12 3699.63,993.783 3700.52,962.309 3701.4,929.987 3702.29,897.11 3703.17,863.98 3704.06,830.899 
  3704.94,798.17 3705.83,766.093 3706.72,734.959 3707.6,705.053 3708.49,676.644 3709.37,649.989 3710.26,625.327 3711.14,602.874 3712.03,582.829 3712.91,565.363 
  3713.8,550.622 3714.68,538.726 3715.57,529.765 3716.45,523.802 3717.34,520.867 3718.22,520.962 3719.11,524.057 3719.99,530.094 3720.88,538.984 3721.76,550.61 
  3722.65,564.828 3723.53,581.467 3724.42,600.333 3725.3,621.209 3726.19,643.859 3727.07,668.027 3727.96,693.444 3728.84,719.828 3729.73,746.887 3730.61,774.322 
  3731.5,801.83 3732.38,829.109 3733.27,855.857 3734.15,881.779 3735.04,906.588 3735.92,930.006 3736.81,951.772 3737.69,971.64 3738.58,989.383 3739.46,1004.79 
  3740.35,1017.69 3741.23,1027.92 3742.12,1035.35 3743,1039.87 3743.89,1041.41 3744.77,1039.93 3745.66,1035.42 3746.54,1027.88 3747.43,1017.37 3748.31,1003.97 
  3749.2,987.776 3750.08,968.924 3750.97,947.573 3751.85,923.908 3752.74,898.138 3753.62,870.49 3754.51,841.213 3755.39,810.569 3756.28,778.838 3757.16,746.306 
  3758.05,713.27 3758.93,680.031 3759.82,646.893 3760.7,614.157 3761.59,582.123 3762.47,551.081 3763.36,521.312 3764.24,493.086 3765.13,466.654 3766.01,442.253 
  3766.9,420.097 3767.78,400.379 3768.67,383.266 3769.55,368.9 3770.44,357.397 3771.32,348.841 3772.21,343.291 3773.09,340.77 3773.98,341.277 3774.86,344.777 
  3775.75,351.205 3776.63,360.468 3777.52,372.446 3778.4,386.988 3779.29,403.92 3780.17,423.044 3781.06,444.14 3781.94,466.968 3782.83,491.27 3783.71,516.775 
  3784.6,543.197 3785.48,570.245 3786.37,597.618 3787.25,625.013 3788.14,652.129 3789.02,678.663 3789.91,704.322 3790.79,728.821 3791.68,751.884 3792.56,773.252 
  3793.45,792.683 3794.33,809.952 3795.22,824.857 3796.1,837.221 3796.99,846.89 3797.87,853.739 3798.76,857.668 3799.64,858.61 3800.53,856.525 3801.41,851.405 
  3802.3,843.271 3803.18,832.176 3804.07,818.199 3804.95,801.452 3805.84,782.072 3806.72,760.223 3807.61,736.094 3808.49,709.896 3809.38,681.861 3810.26,652.24 
  3811.15,621.298 3812.03,589.316 3812.92,556.583 3813.8,523.397 3814.69,490.058 3815.57,456.871 3816.46,424.138 3817.34,392.155 3818.23,361.212 3819.12,331.589 
  3820,303.551 3820.89,277.35 3821.77,253.216 3822.66,231.362 3823.54,211.975 3824.43,195.22 3825.31,181.233 3826.2,170.124 3827.08,161.976 3827.97,156.838 
  3828.85,154.733 3829.74,155.65 3830.62,159.552 3831.51,166.369 3832.39,176.003 3833.28,188.327 3834.16,203.188 3835.05,220.408 3835.93,239.785 3836.82,261.094 
  3837.7,284.092 3838.59,308.521 3839.47,334.104 3840.36,360.557 3841.24,387.585 3842.13,414.888 3843.01,442.162 3843.9,469.105 3844.78,495.417 3845.67,520.806 
  3846.55,544.986 
  "/>
<circle clip-path="url(#clip252)" cx="2854.61" cy="3150.49" r="14.4" fill="#e26f46" fill-rule="evenodd" fill-opacity="1" stroke="#000000" stroke-opacity="1" stroke-width="8"/>
<circle clip-path="url(#clip252)" cx="3688.32" cy="1218.17" r="14.4" fill="#e26f46" fill-rule="evenodd" fill-opacity="1" stroke="#000000" stroke-opacity="1" stroke-width="8"/>
<circle clip-path="url(#clip252)" cx="909.276" cy="2416.51" r="14.4" fill="#e26f46" fill-rule="evenodd" fill-opacity="1" stroke="#000000" stroke-opacity="1" stroke-width="8"/>
<circle clip-path="url(#clip252)" cx="1353.92" cy="3231.38" r="14.4" fill="#e26f46" fill-rule="evenodd" fill-opacity="1" stroke="#000000" stroke-opacity="1" stroke-width="8"/>
<circle clip-path="url(#clip252)" cx="2132.05" cy="3734.68" r="14.4" fill="#e26f46" fill-rule="evenodd" fill-opacity="1" stroke="#000000" stroke-opacity="1" stroke-width="8"/>
<circle clip-path="url(#clip252)" cx="2632.28" cy="3438.09" r="14.4" fill="#e26f46" fill-rule="evenodd" fill-opacity="1" stroke="#000000" stroke-opacity="1" stroke-width="8"/>
<circle clip-path="url(#clip252)" cx="2465.54" cy="3590.88" r="14.4" fill="#e26f46" fill-rule="evenodd" fill-opacity="1" stroke="#000000" stroke-opacity="1" stroke-width="8"/>
<circle clip-path="url(#clip252)" cx="2799.02" cy="3231.38" r="14.4" fill="#e26f46" fill-rule="evenodd" fill-opacity="1" stroke="#000000" stroke-opacity="1" stroke-width="8"/>
<circle clip-path="url(#clip252)" cx="964.857" cy="2539.34" r="14.4" fill="#e26f46" fill-rule="evenodd" fill-opacity="1" stroke="#000000" stroke-opacity="1" stroke-width="8"/>
<circle clip-path="url(#clip252)" cx="3188.09" cy="2539.34" r="14.4" fill="#e26f46" fill-rule="evenodd" fill-opacity="1" stroke="#000000" stroke-opacity="1" stroke-width="8"/>
<circle clip-path="url(#clip252)" cx="409.049" cy="1041.41" r="14.4" fill="#e26f46" fill-rule="evenodd" fill-opacity="1" stroke="#000000" stroke-opacity="1" stroke-width="8"/>
<circle clip-path="url(#clip252)" cx="1298.34" cy="3150.49" r="14.4" fill="#e26f46" fill-rule="evenodd" fill-opacity="1" stroke="#000000" stroke-opacity="1" stroke-width="8"/>
<circle clip-path="url(#clip252)" cx="3577.16" cy="1553.7" r="14.4" fill="#e26f46" fill-rule="evenodd" fill-opacity="1" stroke="#000000" stroke-opacity="1" stroke-width="8"/>
<circle clip-path="url(#clip252)" cx="3076.93" cy="2767.02" r="14.4" fill="#e26f46" fill-rule="evenodd" fill-opacity="1" stroke="#000000" stroke-opacity="1" stroke-width="8"/>
<circle clip-path="url(#clip252)" cx="3299.25" cy="2287.69" r="14.4" fill="#e26f46" fill-rule="evenodd" fill-opacity="1" stroke="#000000" stroke-opacity="1" stroke-width="8"/>
<circle clip-path="url(#clip252)" cx="1687.41" cy="3590.88" r="14.4" fill="#e26f46" fill-rule="evenodd" fill-opacity="1" stroke="#000000" stroke-opacity="1" stroke-width="8"/>
<circle clip-path="url(#clip252)" cx="3410.41" cy="2012.07" r="14.4" fill="#e26f46" fill-rule="evenodd" fill-opacity="1" stroke="#000000" stroke-opacity="1" stroke-width="8"/>
<circle clip-path="url(#clip252)" cx="2298.8" cy="3689.75" r="14.4" fill="#e26f46" fill-rule="evenodd" fill-opacity="1" stroke="#000000" stroke-opacity="1" stroke-width="8"/>
<circle clip-path="url(#clip252)" cx="2409.96" cy="3629.83" r="14.4" fill="#e26f46" fill-rule="evenodd" fill-opacity="1" stroke="#000000" stroke-opacity="1" stroke-width="8"/>
<circle clip-path="url(#clip252)" cx="3132.51" cy="2656.18" r="14.4" fill="#e26f46" fill-rule="evenodd" fill-opacity="1" stroke="#000000" stroke-opacity="1" stroke-width="8"/>
<circle clip-path="url(#clip252)" cx="1631.83" cy="3545.94" r="14.4" fill="#e26f46" fill-rule="evenodd" fill-opacity="1" stroke="#000000" stroke-opacity="1" stroke-width="8"/>
<circle clip-path="url(#clip252)" cx="1742.99" cy="3629.83" r="14.4" fill="#e26f46" fill-rule="evenodd" fill-opacity="1" stroke="#000000" stroke-opacity="1" stroke-width="8"/>
<circle clip-path="url(#clip252)" cx="798.114" cy="2152.87" r="14.4" fill="#e26f46" fill-rule="evenodd" fill-opacity="1" stroke="#000000" stroke-opacity="1" stroke-width="8"/>
<circle clip-path="url(#clip252)" cx="3799.48" cy="858.663" r="14.4" fill="#e26f46" fill-rule="evenodd" fill-opacity="1" stroke="#000000" stroke-opacity="1" stroke-width="8"/>
<circle clip-path="url(#clip252)" cx="1909.73" cy="3710.72" r="14.4" fill="#e26f46" fill-rule="evenodd" fill-opacity="1" stroke="#000000" stroke-opacity="1" stroke-width="8"/>
<circle clip-path="url(#clip252)" cx="1242.76" cy="3063.61" r="14.4" fill="#e26f46" fill-rule="evenodd" fill-opacity="1" stroke="#000000" stroke-opacity="1" stroke-width="8"/>
<circle clip-path="url(#clip252)" cx="1520.66" cy="3438.09" r="14.4" fill="#e26f46" fill-rule="evenodd" fill-opacity="1" stroke="#000000" stroke-opacity="1" stroke-width="8"/>
<circle clip-path="url(#clip252)" cx="2521.12" cy="3545.94" r="14.4" fill="#e26f46" fill-rule="evenodd" fill-opacity="1" stroke="#000000" stroke-opacity="1" stroke-width="8"/>
<circle clip-path="url(#clip252)" cx="1409.5" cy="3306.28" r="14.4" fill="#e26f46" fill-rule="evenodd" fill-opacity="1" stroke="#000000" stroke-opacity="1" stroke-width="8"/>
<circle clip-path="url(#clip252)" cx="1965.31" cy="3725.7" r="14.4" fill="#e26f46" fill-rule="evenodd" fill-opacity="1" stroke="#000000" stroke-opacity="1" stroke-width="8"/>
<circle clip-path="url(#clip252)" cx="1576.25" cy="3495.02" r="14.4" fill="#e26f46" fill-rule="evenodd" fill-opacity="1" stroke="#000000" stroke-opacity="1" stroke-width="8"/>
<circle clip-path="url(#clip252)" cx="575.791" cy="1553.7" r="14.4" fill="#e26f46" fill-rule="evenodd" fill-opacity="1" stroke="#000000" stroke-opacity="1" stroke-width="8"/>
<circle clip-path="url(#clip252)" cx="1020.44" cy="2656.18" r="14.4" fill="#e26f46" fill-rule="evenodd" fill-opacity="1" stroke="#000000" stroke-opacity="1" stroke-width="8"/>
<circle clip-path="url(#clip252)" cx="1854.15" cy="3689.75" r="14.4" fill="#e26f46" fill-rule="evenodd" fill-opacity="1" stroke="#000000" stroke-opacity="1" stroke-width="8"/>
<circle clip-path="url(#clip252)" cx="2187.63" cy="3725.7" r="14.4" fill="#e26f46" fill-rule="evenodd" fill-opacity="1" stroke="#000000" stroke-opacity="1" stroke-width="8"/>
<circle clip-path="url(#clip252)" cx="3465.99" cy="1865.27" r="14.4" fill="#e26f46" fill-rule="evenodd" fill-opacity="1" stroke="#000000" stroke-opacity="1" stroke-width="8"/>
<circle clip-path="url(#clip252)" cx="2743.44" cy="3306.28" r="14.4" fill="#e26f46" fill-rule="evenodd" fill-opacity="1" stroke="#000000" stroke-opacity="1" stroke-width="8"/>
<circle clip-path="url(#clip252)" cx="306.395" cy="544.986" r="14.4" fill="#e26f46" fill-rule="evenodd" fill-opacity="1" stroke="#000000" stroke-opacity="1" stroke-width="8"/>
<circle clip-path="url(#clip252)" cx="631.372" cy="1712.48" r="14.4" fill="#e26f46" fill-rule="evenodd" fill-opacity="1" stroke="#000000" stroke-opacity="1" stroke-width="8"/>
<circle clip-path="url(#clip252)" cx="742.534" cy="2012.07" r="14.4" fill="#e26f46" fill-rule="evenodd" fill-opacity="1" stroke="#000000" stroke-opacity="1" stroke-width="8"/>
<circle clip-path="url(#clip252)" cx="2243.22" cy="3710.72" r="14.4" fill="#e26f46" fill-rule="evenodd" fill-opacity="1" stroke="#000000" stroke-opacity="1" stroke-width="8"/>
<circle clip-path="url(#clip252)" cx="353.468" cy="858.663" r="14.4" fill="#e26f46" fill-rule="evenodd" fill-opacity="1" stroke="#000000" stroke-opacity="1" stroke-width="8"/>
<circle clip-path="url(#clip252)" cx="3743.9" cy="1041.41" r="14.4" fill="#e26f46" fill-rule="evenodd" fill-opacity="1" stroke="#000000" stroke-opacity="1" stroke-width="8"/>
<circle clip-path="url(#clip252)" cx="3521.57" cy="1712.48" r="14.4" fill="#e26f46" fill-rule="evenodd" fill-opacity="1" stroke="#000000" stroke-opacity="1" stroke-width="8"/>
<circle clip-path="url(#clip252)" cx="1076.02" cy="2767.02" r="14.4" fill="#e26f46" fill-rule="evenodd" fill-opacity="1" stroke="#000000" stroke-opacity="1" stroke-width="8"/>
<circle clip-path="url(#clip252)" cx="3243.67" cy="2416.51" r="14.4" fill="#e26f46" fill-rule="evenodd" fill-opacity="1" stroke="#000000" stroke-opacity="1" stroke-width="8"/>
<circle clip-path="url(#clip252)" cx="853.695" cy="2287.69" r="14.4" fill="#e26f46" fill-rule="evenodd" fill-opacity="1" stroke="#000000" stroke-opacity="1" stroke-width="8"/>
<circle clip-path="url(#clip252)" cx="3354.83" cy="2152.87" r="14.4" fill="#e26f46" fill-rule="evenodd" fill-opacity="1" stroke="#000000" stroke-opacity="1" stroke-width="8"/>
<circle clip-path="url(#clip252)" cx="2910.19" cy="3063.61" r="14.4" fill="#e26f46" fill-rule="evenodd" fill-opacity="1" stroke="#000000" stroke-opacity="1" stroke-width="8"/>
<circle clip-path="url(#clip252)" cx="686.953" cy="1865.27" r="14.4" fill="#e26f46" fill-rule="evenodd" fill-opacity="1" stroke="#000000" stroke-opacity="1" stroke-width="8"/>
<circle clip-path="url(#clip252)" cx="464.63" cy="1218.17" r="14.4" fill="#e26f46" fill-rule="evenodd" fill-opacity="1" stroke="#000000" stroke-opacity="1" stroke-width="8"/>
<circle clip-path="url(#clip252)" cx="1131.6" cy="2871.88" r="14.4" fill="#e26f46" fill-rule="evenodd" fill-opacity="1" stroke="#000000" stroke-opacity="1" stroke-width="8"/>
<circle clip-path="url(#clip252)" cx="2965.77" cy="2970.74" r="14.4" fill="#e26f46" fill-rule="evenodd" fill-opacity="1" stroke="#000000" stroke-opacity="1" stroke-width="8"/>
<circle clip-path="url(#clip252)" cx="1465.08" cy="3375.18" r="14.4" fill="#e26f46" fill-rule="evenodd" fill-opacity="1" stroke="#000000" stroke-opacity="1" stroke-width="8"/>
<circle clip-path="url(#clip252)" cx="3846.55" cy="544.986" r="14.4" fill="#e26f46" fill-rule="evenodd" fill-opacity="1" stroke="#000000" stroke-opacity="1" stroke-width="8"/>
<circle clip-path="url(#clip252)" cx="3632.74" cy="1388.93" r="14.4" fill="#e26f46" fill-rule="evenodd" fill-opacity="1" stroke="#000000" stroke-opacity="1" stroke-width="8"/>
<circle clip-path="url(#clip252)" cx="2020.89" cy="3734.68" r="14.4" fill="#e26f46" fill-rule="evenodd" fill-opacity="1" stroke="#000000" stroke-opacity="1" stroke-width="8"/>
<circle clip-path="url(#clip252)" cx="2076.47" cy="3737.68" r="14.4" fill="#e26f46" fill-rule="evenodd" fill-opacity="1" stroke="#000000" stroke-opacity="1" stroke-width="8"/>
<circle clip-path="url(#clip252)" cx="1798.57" cy="3662.78" r="14.4" fill="#e26f46" fill-rule="evenodd" fill-opacity="1" stroke="#000000" stroke-opacity="1" stroke-width="8"/>
<circle clip-path="url(#clip252)" cx="3021.35" cy="2871.88" r="14.4" fill="#e26f46" fill-rule="evenodd" fill-opacity="1" stroke="#000000" stroke-opacity="1" stroke-width="8"/>
<circle clip-path="url(#clip252)" cx="2687.86" cy="3375.18" r="14.4" fill="#e26f46" fill-rule="evenodd" fill-opacity="1" stroke="#000000" stroke-opacity="1" stroke-width="8"/>
<circle clip-path="url(#clip252)" cx="1187.18" cy="2970.74" r="14.4" fill="#e26f46" fill-rule="evenodd" fill-opacity="1" stroke="#000000" stroke-opacity="1" stroke-width="8"/>
<circle clip-path="url(#clip252)" cx="2354.38" cy="3662.78" r="14.4" fill="#e26f46" fill-rule="evenodd" fill-opacity="1" stroke="#000000" stroke-opacity="1" stroke-width="8"/>
<circle clip-path="url(#clip252)" cx="2576.7" cy="3495.02" r="14.4" fill="#e26f46" fill-rule="evenodd" fill-opacity="1" stroke="#000000" stroke-opacity="1" stroke-width="8"/>
<circle clip-path="url(#clip252)" cx="520.211" cy="1388.93" r="14.4" fill="#e26f46" fill-rule="evenodd" fill-opacity="1" stroke="#000000" stroke-opacity="1" stroke-width="8"/>
<path clip-path="url(#clip250)" d="
M3358.29 329.362 L3827.67 329.362 L3827.67 173.842 L3358.29 173.842  Z
  " fill="#ffffff" fill-rule="evenodd" fill-opacity="1"/>
<polyline clip-path="url(#clip250)" style="stroke:#000000; stroke-linecap:round; stroke-linejoin:round; stroke-width:4; stroke-opacity:1; fill:none" points="
  3358.29,329.362 3827.67,329.362 3827.67,173.842 3358.29,173.842 3358.29,329.362 
  "/>
<polyline clip-path="url(#clip250)" style="stroke:#009af9; stroke-linecap:round; stroke-linejoin:round; stroke-width:4; stroke-opacity:1; fill:none" points="
  3399.98,225.682 3650.15,225.682 
  "/>
<path clip-path="url(#clip250)" d="M3705.69 245.369 Q3703.89 249.999 3702.17 251.411 Q3700.46 252.823 3697.59 252.823 L3694.19 252.823 L3694.19 249.258 L3696.69 249.258 Q3698.45 249.258 3699.42 248.424 Q3700.39 247.591 3701.57 244.489 L3702.34 242.545 L3691.85 217.036 L3696.36 217.036 L3704.47 237.313 L3712.57 217.036 L3717.08 217.036 L3705.69 245.369 Z" fill="#000000" fill-rule="evenodd" fill-opacity="1" /><path clip-path="url(#clip250)" d="M3724.37 239.026 L3732.01 239.026 L3732.01 212.661 L3723.7 214.327 L3723.7 210.068 L3731.97 208.402 L3736.64 208.402 L3736.64 239.026 L3744.28 239.026 L3744.28 242.962 L3724.37 242.962 L3724.37 239.026 Z" fill="#000000" fill-rule="evenodd" fill-opacity="1" /><circle clip-path="url(#clip250)" cx="3525.07" cy="277.522" r="23.04" fill="#e26f46" fill-rule="evenodd" fill-opacity="1" stroke="#000000" stroke-opacity="1" stroke-width="12.8"/>
<path clip-path="url(#clip250)" d="M3705.69 297.209 Q3703.89 301.839 3702.17 303.251 Q3700.46 304.663 3697.59 304.663 L3694.19 304.663 L3694.19 301.098 L3696.69 301.098 Q3698.45 301.098 3699.42 300.264 Q3700.39 299.431 3701.57 296.329 L3702.34 294.385 L3691.85 268.876 L3696.36 268.876 L3704.47 289.153 L3712.57 268.876 L3717.08 268.876 L3705.69 297.209 Z" fill="#000000" fill-rule="evenodd" fill-opacity="1" /><path clip-path="url(#clip250)" d="M3727.59 290.866 L3743.91 290.866 L3743.91 294.802 L3721.97 294.802 L3721.97 290.866 Q3724.63 288.112 3729.21 283.482 Q3733.82 278.829 3735 277.487 Q3737.24 274.964 3738.12 273.228 Q3739.03 271.468 3739.03 269.779 Q3739.03 267.024 3737.08 265.288 Q3735.16 263.552 3732.06 263.552 Q3729.86 263.552 3727.41 264.316 Q3724.97 265.079 3722.2 266.63 L3722.2 261.908 Q3725.02 260.774 3727.47 260.195 Q3729.93 259.617 3731.97 259.617 Q3737.34 259.617 3740.53 262.302 Q3743.72 264.987 3743.72 269.478 Q3743.72 271.607 3742.91 273.529 Q3742.13 275.427 3740.02 278.019 Q3739.44 278.691 3736.34 281.908 Q3733.24 285.103 3727.59 290.866 Z" fill="#000000" fill-rule="evenodd" fill-opacity="1" /></svg>
